<svg width="28" height="29" viewBox="0 0 28 29" fill="none" xmlns="http://www.w3.org/2000/svg">
<circle cx="14" cy="14.5" r="14" fill="#FF490F"/>
<path d="M17.9229 18.4071C17.1309 18.1949 16.3991 17.8608 15.7464 17.4374C15.5418 17.2998 15.2751 17.2904 15.0546 17.4177L13.7037 18.4154C12.1143 17.0577 10.8478 14.9584 10.4454 12.8284L11.9875 12.0959C12.2097 11.9621 12.3285 11.7248 12.3181 11.4804C12.2713 10.7018 12.3543 9.90273 12.5665 9.11067C12.6597 8.76294 12.4476 8.39551 12.0998 8.30234L9.87177 7.70533C9.52404 7.61215 9.06406 7.65455 8.93465 8.13751C7.3317 14.1198 10.9774 20.4249 16.9532 22.0261C17.4104 22.1486 17.6995 21.7912 17.7944 21.4371L18.3896 19.2154C18.4828 18.8677 18.2707 18.5003 17.9229 18.4071Z" fill="white"/>
</svg>
