<svg width="16" height="16" viewBox="0 0 16 16" fill="none" xmlns="http://www.w3.org/2000/svg">
<path d="M13.0247 9.85879C12.2264 9.85879 11.4541 9.73386 10.7338 9.50898C10.5066 9.43402 10.2535 9.49024 10.0783 9.6589L9.05936 10.8895C7.22271 10.0462 5.50289 8.4533 4.58781 6.62305L5.85334 5.58611C6.02857 5.4112 6.08049 5.16759 6.0091 4.94895C5.76897 4.25558 5.64567 3.51224 5.64567 2.7439C5.64567 2.40659 5.35362 2.12549 5.00316 2.12549H2.75765C2.4072 2.12549 1.98535 2.27541 1.98535 2.7439C1.98535 8.547 7.00206 13.3694 13.0247 13.3694C13.4855 13.3694 13.6672 12.9758 13.6672 12.6323V10.4772C13.6672 10.1399 13.3752 9.85879 13.0247 9.85879Z" fill="white"/>
</svg>
