<svg width="47" height="35" viewBox="0 0 47 35" fill="none" xmlns="http://www.w3.org/2000/svg">
<path d="M40.5923 8.54614H34.1827V0H4.27307C1.92304 0 0 1.92501 0 4.27307V27.773H4.27307C4.27307 31.3196 7.13619 34.1787 10.6807 34.1787C14.2292 34.1787 17.0904 31.3176 17.0904 27.773H29.9076C29.9076 31.3196 32.7708 34.1787 36.3173 34.1787C39.8638 34.1787 42.725 31.3176 42.725 27.773H47V17.0903L40.5923 8.54614ZM10.6807 30.9788C8.90842 30.9788 7.47691 29.5453 7.47691 27.773C7.47691 25.9987 8.90646 24.5672 10.6807 24.5672C12.455 24.5672 13.8866 25.9968 13.8866 27.773C13.8866 29.5434 12.455 30.9788 10.6807 30.9788ZM39.523 11.75L43.7099 17.0903H34.1807V11.75H39.523ZM36.3193 30.9788C34.545 30.9788 33.1134 29.5453 33.1134 27.773C33.1134 25.9987 34.543 24.5672 36.3193 24.5672C38.0916 24.5672 39.5231 25.9968 39.5231 27.773C39.523 29.5434 38.0915 30.9788 36.3193 30.9788Z" fill="#FF490F"/>
</svg>
