<svg width="31" height="40" viewBox="0 0 31 40" fill="none" xmlns="http://www.w3.org/2000/svg">
<path d="M14.8591 39.668C14.251 39.52 13.6724 39.0424 13.4153 38.477C13.2148 38.0368 13.2148 37.1933 13.4153 36.7558C13.5633 36.4336 14.2424 35.7321 14.4068 35.7321C14.4594 35.7321 14.489 35.2094 14.489 34.264V32.7963L14.0182 32.8357C11.701 33.0231 9.98771 33.3919 8.65144 33.9909L8.17741 34.2045L8.37794 34.4182C9.01106 35.0944 9.14551 36.1026 8.70732 36.8869C7.88945 38.3517 5.79316 38.3347 5.04005 36.8541C4.46248 35.7206 4.93814 34.437 6.32208 33.3969C7.70273 32.3588 9.93873 31.6086 12.6685 31.2671L13.0984 31.2144V29.3387V27.463H15.3095H17.5201V29.3387V31.2144L17.9501 31.2671C21.8209 31.7526 24.6111 33.056 25.5858 34.8337C25.7962 35.2206 25.8323 35.3656 25.829 35.8958C25.8274 36.3656 25.7863 36.5888 25.6482 36.8452C25.4378 37.2426 24.9737 37.6697 24.5664 37.8406C24.1673 38.0082 23.3708 37.9984 22.9425 37.8077C22.5151 37.6335 21.8922 36.9586 21.7788 36.55C21.5717 35.7986 21.7459 34.9265 22.2308 34.4853C22.3425 34.3801 22.4313 34.2716 22.4313 34.2387C22.4313 34.2059 22.2373 34.0974 22.0013 33.9955C20.5428 33.3666 18.7716 32.9797 16.6381 32.8239L16.2082 32.791V34.2325V35.6736L16.5494 35.9202C17.1822 36.3797 17.4803 37.0414 17.4014 37.8113C17.2732 39.0638 16.0517 39.9425 14.8472 39.6492L14.8591 39.668ZM4.49404 26.1507C3.69983 26.016 2.99767 25.4745 2.64988 24.727C2.45593 24.3135 2.45593 24.2823 2.45593 21.5456L2.45527 18.782H3.6331H4.81093L4.90954 19.4575C5.0772 20.6035 5.39442 21.3865 5.92794 21.9621C6.38454 22.4545 6.52688 22.4897 7.30267 22.3023C8.25105 22.0722 10.5337 21.7534 11.9949 21.6436C12.6704 21.5943 14.1629 21.5515 15.3114 21.5515C16.4597 21.5515 17.9521 21.5943 18.6276 21.6436C20.0888 21.752 22.3718 22.0739 23.3195 22.3023C23.9891 22.4634 24.003 22.4634 24.3021 22.3023C25.0828 21.9006 25.5943 20.8674 25.7541 19.3678L25.81 18.856H27.0341H28.2586L28.2258 21.5788C28.1929 24.2205 28.1929 24.3135 28.0121 24.7109C27.6482 25.5012 26.9888 25.9969 26.1124 26.1386C25.4865 26.2405 5.08445 26.2438 4.48847 26.1386L4.49404 26.1507ZM6.92234 20.8908C6.84673 20.5167 5.48153 5.29502 5.48252 4.81771C5.48449 3.65533 5.96541 2.56166 6.86843 1.66654C7.58505 0.955835 8.08241 0.665241 8.9703 0.438419C9.57187 0.283918 9.89041 0.277344 15.3019 0.277344C20.0911 0.278659 21.0839 0.310217 21.524 0.40226C23.0838 0.769775 24.4596 2.06364 24.9342 3.60931C25.1939 4.45808 25.1676 4.89562 24.3678 13.0783C23.9408 17.4398 23.5796 21.0203 23.5648 21.0351C23.5648 21.0351 23.1884 20.9891 22.761 20.9036C20.9632 20.5348 17.7443 20.2573 15.2608 20.257C12.8394 20.2567 9.6317 20.5397 7.826 20.9102C7.38321 21.0022 7.00748 21.0745 6.99071 21.0745C6.95784 21.0745 6.94469 20.9924 6.92168 20.8905L6.92234 20.8908ZM0.774827 17.7038C0.449388 17.523 0.239331 17.2718 0.155178 16.9602C0.040125 16.5368 0.155178 16.1926 0.550964 15.8156C2.0585 14.3616 4.58542 15.0838 5.11599 17.1206C5.18173 17.377 5.23762 17.6357 5.23762 17.6939C5.23762 17.8353 1.02729 17.8418 0.774828 17.6939L0.774827 17.7038ZM25.3839 17.5756C25.3839 17.2081 25.6601 16.5309 25.9599 16.1351C26.5749 15.3264 27.6272 14.909 28.5985 15.0884C30.0252 15.3514 30.8339 16.4053 30.2921 17.2939C30.0062 17.7643 29.8023 17.8008 27.4717 17.8008H25.381L25.3839 17.5739V17.5756Z" fill="#FF490F"/>
</svg>
