<svg width="44" height="44" viewBox="0 0 44 44" fill="none" xmlns="http://www.w3.org/2000/svg">
<path d="M22 17.5068C22.8504 17.5068 23.5449 18.1996 23.5449 19.05C23.5449 19.8261 24.1757 20.455 24.9517 20.455C25.726 20.455 26.3567 19.8261 26.3567 19.05C26.3567 17.1436 25.1147 15.5349 23.405 14.9467V14.1494C23.405 13.3751 22.776 12.7426 22 12.7426C21.2222 12.7426 20.5932 13.3751 20.5932 14.1494V14.9467C18.8835 15.5349 17.645 17.1436 17.645 19.05C17.645 21.4543 19.5975 23.4067 22 23.4067C22.8504 23.4067 23.5449 24.1013 23.5449 24.9517C23.5449 25.8039 22.8504 26.4967 22 26.4967C21.1495 26.4967 20.4568 25.8039 20.4568 24.9517C20.4568 24.1757 19.8261 23.5449 19.05 23.5449C18.2722 23.5449 17.645 24.1757 17.645 24.9517C17.645 26.8581 18.8835 28.4651 20.5932 29.0533V29.8506C20.5932 30.6284 21.2222 31.2591 22 31.2591C22.776 31.2591 23.405 30.6284 23.405 29.8506V29.0533C25.1147 28.4651 26.3567 26.8581 26.3567 24.9517C26.3567 22.5492 24.4025 20.595 22 20.595C21.1495 20.595 20.4568 19.9022 20.4568 19.05C20.4568 18.1996 21.1495 17.5068 22 17.5068ZM33.7803 29.808C34.4695 30.1712 35.3182 29.9073 35.6796 29.2234C36.8489 27.014 37.4655 24.5159 37.4655 22C37.4655 13.4744 30.5256 6.53623 22 6.53623C13.4726 6.53623 6.53446 13.4744 6.53446 22C6.53446 30.5274 13.4726 37.4655 22 37.4655C24.4786 37.4655 26.9414 36.8667 29.1224 35.731C29.8116 35.3749 30.0791 34.5226 29.7212 33.8352C29.3633 33.1495 28.5147 32.8767 27.8237 33.2364C26.0183 34.1789 24.057 34.6555 22 34.6555C15.0229 34.6555 9.34444 28.9789 9.34444 22C9.34444 15.0246 15.0229 9.34621 22 9.34621C28.9771 9.34621 34.6555 15.0246 34.6555 22C34.6555 24.0605 34.1488 26.1033 33.1956 27.907C32.8306 28.5944 33.0928 29.4448 33.7803 29.808ZM22 0.90918C17.9268 0.90918 13.9722 2.07499 10.5652 4.27726C9.91139 4.69893 9.72536 5.56886 10.147 6.22086C10.5705 6.87286 11.4369 7.05712 12.0924 6.63899C15.0406 4.7326 18.4707 3.7227 22 3.7227C32.0794 3.7227 40.2773 11.9223 40.2773 22C40.2773 32.0794 32.0794 40.279 22 40.279C11.9205 40.279 3.72093 32.0794 3.72093 22C3.72093 18.5043 4.71134 15.1044 6.58761 12.1721C7.00574 11.5166 6.81439 10.6467 6.15885 10.2285C5.50507 9.8104 4.63515 10.0018 4.21879 10.6555C2.05372 14.0413 0.90918 17.9675 0.90918 22C0.90918 33.6315 10.3685 43.0908 22 43.0908C33.6297 43.0908 43.0908 33.6315 43.0908 22C43.0908 10.372 33.6297 0.90918 22 0.90918Z" fill="#FF490F"/>
</svg>
