<svg width="39" height="39" viewBox="0 0 39 39" fill="none" xmlns="http://www.w3.org/2000/svg">
<path d="M9.75238 0C7.73455 0 6.09613 1.64248 6.09613 3.65744V29.2464H0.606999C0.270275 29.2476 -0.00128931 29.5227 4.60462e-06 29.8594V35.3426C4.60462e-06 37.3575 1.64319 39 3.65863 39C9.75368 39 26.2102 39 32.3052 39C34.3207 39 35.9579 37.372 35.9579 35.3426V31.0781H38.3882C38.7267 31.0795 39.0013 30.8048 39 30.4664V20.1058C38.9988 19.7691 38.725 19.4975 38.3882 19.4988H35.9579V8.53363H37.1778C37.5163 8.53493 37.7909 8.26028 37.7896 7.92188V3.65744C37.7896 1.64248 36.1464 0 34.1309 0H9.75238ZM9.75238 1.21875C11.1138 1.22114 12.1887 2.29808 12.1887 3.65744V7.92188C12.1874 8.26028 12.462 8.53493 12.8004 8.53363H34.7427C34.7432 12.3341 34.7427 16.4107 34.7427 20.1058C34.1945 19.9959 33.6192 19.7413 33.1371 19.5488C32.493 19.2864 31.7256 18.9645 30.9103 18.6419L32.5885 15.7354C33.0897 14.8675 32.7865 13.7395 31.9184 13.2384L30.8615 12.6314C29.9934 12.1303 28.8645 12.4288 28.3633 13.2968L24.2715 20.3819L18.8966 23.4847C17.736 24.1546 17.3315 25.6534 18.0016 26.8137C18.3585 27.4318 18.9506 27.8377 19.6024 27.9789C19.5429 28.1882 19.5087 28.4083 19.5083 28.6359C19.334 28.9991 19.2949 29.4016 19.2334 29.7594C19.0902 30.8398 19.0135 31.8318 18.9347 32.9039L16.6138 32.9051C16.2942 32.5443 15.8793 32.2894 15.2356 32.3052C15.0386 32.3257 14.818 32.3669 14.6214 32.4469C14.4243 31.9394 14.1185 31.5608 13.6371 31.271C12.8524 30.8181 11.8687 30.906 11.0902 31.4245C10.3116 31.943 9.81475 32.8074 9.75476 33.7406C9.73284 34.0758 9.98603 34.3653 10.3213 34.3881C10.6583 34.4099 10.9484 34.1537 10.9688 33.8168C11.0032 33.2805 11.3178 32.734 11.765 32.4362C12.2123 32.1383 12.6822 32.1277 13.029 32.3278C13.3757 32.528 13.5942 32.939 13.5598 33.4752C13.517 34.0617 14.2494 34.3633 14.6321 33.9167C14.8061 33.7176 15.0757 33.548 15.2618 33.5252C15.3633 33.5127 15.5721 33.4996 15.8104 33.8537C15.9232 34.0217 16.1115 34.1231 16.3139 34.1238H19.4512C19.5806 34.1358 19.7174 34.1061 19.8416 34.0239C21.0956 33.1728 22.5734 32.1811 23.3871 31.4554C23.5176 31.336 23.6165 31.2483 23.7216 31.0781H28.6513C30.4441 31.0781 32.6028 30.5683 34.7427 30.4795V35.3426C34.7427 36.6832 33.6664 37.7801 32.3052 37.7801C26.7721 37.7801 13.4965 37.7801 6.38892 37.7801C6.9492 37.1449 7.31488 36.2941 7.31488 35.3426V3.65744C7.31488 2.29657 8.3888 1.21875 9.75238 1.21875ZM10.3618 10.9664C10.0233 10.965 9.74867 11.2409 9.75 11.5793C9.75116 11.916 10.025 12.1876 10.3618 12.1863H25.295C25.63 12.1852 25.902 11.9142 25.9032 11.5793C25.9045 11.2427 25.6318 10.9675 25.295 10.9664H10.3618ZM10.3618 14.6238C10.0233 14.6225 9.74867 14.8972 9.75 15.2356C9.75116 15.5722 10.025 15.8439 10.3618 15.8426H22.5504C22.8872 15.8439 23.161 15.5722 23.1622 15.2356C23.1635 14.8972 22.8889 14.6225 22.5504 14.6238H10.3618ZM27.8979 16.546L30.0081 17.7647L25.1331 26.2019H22.3219L27.8979 16.546ZM10.3618 18.2812C10.025 18.2799 9.75116 18.5516 9.75 18.8882C9.74866 19.2267 10.0233 19.5001 10.3618 19.4988H19.8106C20.1474 19.4977 20.419 19.2249 20.4176 18.8882C20.4165 18.5533 20.1456 18.2824 19.8106 18.2812H10.3618ZM30.2938 19.7059C31.1508 20.0435 31.9718 20.391 32.6742 20.6771C33.3299 20.9614 34.3728 21.3551 34.7427 21.3257V29.2583C32.4221 29.3417 30.208 29.8594 28.6513 29.8594H21.947C21.2611 29.8594 20.7283 29.3251 20.7283 28.6394C20.7283 27.9537 21.2611 27.4207 21.947 27.4207H26.8161C27.1528 27.422 27.4267 27.1503 27.4278 26.8137C27.4292 26.4753 27.1546 26.2006 26.8161 26.2019H26.5423L30.2938 19.7059ZM9.75 22.5445C9.74866 22.8829 10.0233 23.1576 10.3618 23.1562H17.0661C17.4028 23.1551 17.6744 22.8812 17.6731 22.5445C17.6719 22.2096 17.4011 21.9387 17.0661 21.9375H10.3463C10.0086 21.9525 9.75112 22.2184 9.75 22.5445ZM23.0551 22.4874L20.7223 26.528C20.599 26.6008 20.4772 26.6943 20.3486 26.7911C19.839 26.8828 19.3271 26.6719 19.0584 26.2067C18.7155 25.6129 18.9096 24.8797 19.5036 24.5369L23.0551 22.4874ZM10.3713 28.0277C10.0328 28.0263 9.75819 28.301 9.75952 28.6394C9.76068 28.9761 10.0345 29.2478 10.3713 29.2464H16.4579C16.7929 29.2453 17.0649 28.9743 17.0661 28.6394C17.0674 28.3028 16.7946 28.0288 16.4579 28.0277H10.3713ZM20.3688 30.4926C20.7891 30.8515 21.3303 31.0706 21.9208 31.0769C21.3442 31.5163 20.6793 31.9762 20.207 32.2969C20.2474 31.6431 20.2987 31.1601 20.3688 30.4926Z" fill="#FF490F"/>
</svg>
