<svg width="36" height="31" viewBox="0 0 36 31" fill="none" xmlns="http://www.w3.org/2000/svg">
<path d="M9.21933 0.00249048C6.21434 0.0548955 3.27217 0.916812 0.421839 2.42473C0.295694 2.49033 0.189777 2.58909 0.115458 2.7104C0.0411389 2.83171 0.00122454 2.97099 0 3.1133V24.623L0.369874 24.3903C0.383307 24.38 0.39707 24.3701 0.411142 24.3607C3.37628 22.7547 6.38501 21.9374 9.39357 21.9315V21.9331C12.0122 21.9283 14.6301 22.5405 17.2205 23.7754V1.82654C14.5223 0.527235 11.8477 -0.0433987 9.21933 0.00256384L9.21933 0.00249048ZM18.7856 2.33295V24.268H36V5.46672C36 3.7452 34.5893 2.33295 32.8698 2.33295H18.7856ZM26.608 6.24714C26.7112 6.24673 26.8136 6.26681 26.9091 6.30619C27.0046 6.34558 27.0913 6.4035 27.1644 6.47661C27.2374 6.54973 27.2953 6.63659 27.3346 6.7322C27.3739 6.82781 27.394 6.93024 27.3936 7.03364H31.3032C31.4062 7.03305 31.5084 7.05281 31.6037 7.09182C31.6991 7.13083 31.7858 7.18835 31.859 7.26099C31.9321 7.33363 31.9902 7.42002 32.0299 7.51519C32.0696 7.61035 32.0901 7.71239 32.0903 7.81553V9.23859L33.5974 13.009C33.6451 13.128 33.663 13.2569 33.6494 13.3844C33.6357 13.512 33.5911 13.6343 33.5192 13.7405C33.4474 13.8467 33.3506 13.9336 33.2374 13.9936C33.1242 14.0537 32.998 14.0849 32.8698 14.0847H29.7381C29.61 14.0849 29.4838 14.0537 29.3706 13.9936C29.2573 13.9336 29.1606 13.8467 29.0887 13.7405C29.0169 13.6343 28.9722 13.512 28.9586 13.3844C28.945 13.2569 28.9628 13.128 29.0106 13.009L30.5237 9.22333V8.60211H27.3936V17.2185H28.9586C29.1039 17.2189 29.2461 17.2598 29.3695 17.3366C29.4929 17.4133 29.5924 17.5229 29.6571 17.653L31.2237 20.7808C31.2834 20.9002 31.3115 21.033 31.3055 21.1664C31.2995 21.2998 31.2596 21.4294 31.1894 21.543C31.1193 21.6566 31.0213 21.7504 30.9048 21.8154C30.7883 21.8804 30.6571 21.9146 30.5237 21.9146H22.6968C22.5635 21.9143 22.4325 21.88 22.3162 21.8149C22.1999 21.7498 22.1022 21.6559 22.0322 21.5424C21.9623 21.4288 21.9224 21.2993 21.9165 21.166C21.9106 21.0327 21.9387 20.9001 21.9983 20.7808L23.5634 17.653C23.6281 17.5229 23.7277 17.4133 23.851 17.3366C23.9744 17.2598 24.1166 17.2189 24.2619 17.2185H25.8285V8.60211H22.6968V9.23859L24.2038 13.009C24.2516 13.128 24.2694 13.2569 24.2558 13.3844C24.2422 13.512 24.1975 13.6343 24.1257 13.7405C24.0538 13.8467 23.9571 13.9336 23.8438 13.9936C23.7306 14.0537 23.6044 14.0849 23.4763 14.0847H20.3522C20.224 14.0852 20.0976 14.0541 19.9841 13.9942C19.8707 13.9342 19.7737 13.8474 19.7017 13.7411C19.6297 13.6349 19.5849 13.5126 19.5712 13.3849C19.5575 13.2572 19.5753 13.1281 19.6232 13.009L21.1317 9.23859V7.81553C21.1319 7.71252 21.1524 7.61062 21.192 7.51555C21.2316 7.42049 21.2896 7.33413 21.3626 7.2615C21.4355 7.18888 21.5221 7.13136 21.6173 7.09226C21.7125 7.05316 21.8144 7.03325 21.9173 7.03364H25.8285C25.8281 6.93076 25.8479 6.82881 25.8869 6.7336C25.9258 6.63839 25.9831 6.55178 26.0555 6.47874C26.1279 6.4057 26.2139 6.3477 26.3087 6.30796C26.4035 6.26821 26.5052 6.24754 26.608 6.24714ZM8.75775 6.2712C9.18195 6.25437 9.59572 6.25437 10.0003 6.2712C11.6188 6.34115 13.0865 6.67715 14.477 7.0638C14.6755 7.11988 14.8438 7.25212 14.9454 7.43178C15.047 7.61143 15.0737 7.82398 15.0196 8.02321C14.9649 8.22303 14.8334 8.393 14.6538 8.49595C14.4742 8.5989 14.2611 8.62645 14.0613 8.57254C11.3671 7.82377 8.75387 7.31612 5.12932 8.55574C4.93332 8.62304 4.71866 8.6097 4.53242 8.51877C4.34618 8.42783 4.20356 8.26667 4.13586 8.0706C4.10275 7.97295 4.08922 7.86971 4.09605 7.76682C4.10288 7.66392 4.12993 7.56343 4.17565 7.47102C4.22138 7.37862 4.28487 7.29613 4.3625 7.22834C4.44012 7.16056 4.53035 7.10884 4.628 7.07605C6.11904 6.56683 7.48515 6.32979 8.75775 6.27267V6.2712ZM10.0003 10.9657C11.6188 11.0357 13.0865 11.3718 14.477 11.7583C14.5761 11.7861 14.6688 11.8331 14.7498 11.8968C14.8307 11.9604 14.8983 12.0394 14.9487 12.1292C14.9991 12.2191 15.0313 12.318 15.0435 12.4203C15.0556 12.5226 15.0475 12.6263 15.0196 12.7254C14.9636 12.9241 14.8315 13.0926 14.6521 13.1944C14.4726 13.2961 14.2603 13.3228 14.0613 13.2687C11.3671 12.52 8.75387 12.0184 5.12932 13.2567C4.93332 13.324 4.71866 13.3107 4.53242 13.2198C4.34618 13.1288 4.20357 12.9676 4.13586 12.7716C4.10275 12.6739 4.08922 12.5707 4.09605 12.4678C4.10288 12.3649 4.12993 12.2643 4.17565 12.1719C4.22138 12.0795 4.28487 11.9971 4.3625 11.9293C4.44012 11.8615 4.53035 11.8098 4.628 11.777C6.61605 11.0979 8.38187 10.8961 10.0003 10.9659V10.9657ZM21.9112 11.4875L21.5016 12.5158H22.3269L21.9112 11.4875ZM31.3032 11.4923L30.8936 12.516H31.7144L31.3032 11.4923ZM8.75775 15.6682C9.18195 15.6514 9.59572 15.6514 10.0003 15.6682C11.6188 15.7381 13.0865 16.0743 14.477 16.4608C14.6769 16.5168 14.8463 16.65 14.948 16.8311C15.0498 17.0122 15.0755 17.2263 15.0196 17.4264C14.9639 17.6253 14.832 17.7942 14.6525 17.8962C14.473 17.9983 14.2605 18.0251 14.0613 17.9711C11.3671 17.2224 8.75387 16.7208 5.12932 17.9591C5.03188 17.9923 4.92886 18.0059 4.82616 17.9992C4.72346 17.9924 4.62309 17.9654 4.53081 17.9198C4.43852 17.8742 4.35614 17.8108 4.28837 17.7332C4.2206 17.6557 4.16877 17.5655 4.13586 17.4679C4.10275 17.3702 4.08922 17.267 4.09605 17.1641C4.10288 17.0612 4.12993 16.9607 4.17565 16.8683C4.22138 16.7759 4.28487 16.6934 4.3625 16.6256C4.44012 16.5578 4.53035 16.506 4.628 16.4732C6.11904 15.9638 7.48513 15.7257 8.75775 15.6684V15.6682ZM24.7418 18.7851L23.9623 20.3535H29.2597L28.4741 18.7851H24.7418ZM9.40273 23.469C6.67477 23.4714 3.9451 24.2327 1.17229 25.7321L0 26.4738V31L0.33472 30.7628C0.359302 30.746 0.384817 30.7307 0.411141 30.7168C3.37628 29.1101 6.38501 28.2928 9.39356 28.2869C12.0122 28.2821 14.6301 28.8909 17.2205 30.1247V25.528C14.5922 24.1513 11.9974 23.4642 9.40273 23.4684L9.40273 23.469ZM8.75775 25.0726C9.18195 25.0558 9.59572 25.0558 10.0003 25.0726C11.6188 25.1426 13.0865 25.4788 14.477 25.8652C14.6769 25.9213 14.8463 26.0545 14.948 26.2356C15.0498 26.4166 15.0755 26.6307 15.0196 26.8308C14.9636 27.0295 14.8315 27.198 14.6521 27.2997C14.4726 27.4015 14.2603 27.4281 14.0613 27.374C11.3671 26.6254 8.75387 26.1237 5.12932 27.362C5.03188 27.3952 4.92886 27.4088 4.82616 27.4021C4.72346 27.3953 4.62309 27.3683 4.53081 27.3227C4.43852 27.2771 4.35614 27.2137 4.28837 27.1361C4.2206 27.0586 4.16877 26.9684 4.13586 26.8708C4.10275 26.7731 4.08922 26.6699 4.09605 26.567C4.10288 26.4641 4.12993 26.3636 4.17565 26.2712C4.22138 26.1788 4.28487 26.0963 4.3625 26.0285C4.44012 25.9608 4.53035 25.909 4.628 25.8762C6.11904 25.3669 7.48515 25.13 8.75775 25.0729V25.0726ZM18.7856 25.8362V30.5782H35.54C35.8258 30.1057 36 29.5586 36 28.9699H30.5237C30.4205 28.9704 30.3181 28.9503 30.2226 28.911C30.1271 28.8716 30.0404 28.8137 29.9673 28.7406C29.8943 28.6674 29.8364 28.5806 29.7971 28.485C29.7578 28.3894 29.7377 28.2868 29.7381 28.1834C29.7385 28.0806 29.7592 27.9788 29.7989 27.8839C29.8386 27.789 29.8965 27.7028 29.9695 27.6304C30.0424 27.5579 30.1289 27.5005 30.224 27.4615C30.3191 27.4225 30.421 27.4027 30.5237 27.4031H36V25.8362H18.7856ZM24.2619 27.4031H27.3936C27.6001 27.4039 27.7979 27.4863 27.9439 27.6325C28.0899 27.7787 28.1723 27.9767 28.1731 28.1834C28.1735 28.2863 28.1536 28.3883 28.1147 28.4835C28.0757 28.5787 28.0184 28.6653 27.946 28.7383C27.8736 28.8114 27.7876 28.8695 27.6928 28.9092C27.598 28.9489 27.4963 28.9695 27.3936 28.9699H24.2619C24.1586 28.9704 24.0562 28.9503 23.9608 28.911C23.8653 28.8716 23.7785 28.8137 23.7055 28.7406C23.6324 28.6674 23.5746 28.5806 23.5352 28.485C23.4959 28.3894 23.4759 28.2868 23.4763 28.1834C23.4767 28.0806 23.4973 27.9788 23.537 27.8839C23.5767 27.789 23.6347 27.7028 23.7076 27.6304C23.7806 27.5579 23.8671 27.5005 23.9622 27.4615C24.0573 27.4225 24.1591 27.4027 24.2619 27.4031Z" fill="#FF490F"/>
</svg>
