<svg width="47" height="47" viewBox="0 0 47 47" fill="none" xmlns="http://www.w3.org/2000/svg">
<path d="M41.1251 11.75H43.0834V7.83333H41.1251V5.875H35.2501V7.83333H11.7501V5.875H5.87508V7.83333H3.91675V11.75H5.87508V39.1667H3.91675V43.0833H13.7084V39.1667H11.7501V11.75H21.5417V13.7083H22.5209V20.7975C21.5417 21.1304 20.9347 22.0312 20.9347 23.03C20.9347 23.8917 21.3851 24.675 22.1292 25.1058V27.4167H23.3434C24.0092 27.4167 24.5576 27.9454 24.5772 28.6112C24.5772 29.2967 24.0484 29.845 23.363 29.845C22.9322 29.845 22.5209 29.61 22.3055 29.2379C21.9726 28.67 21.2284 28.4742 20.6605 28.8071C20.0926 29.1204 19.8772 29.8646 20.2101 30.4521C20.8563 31.5683 22.0509 32.2537 23.3434 32.2537C25.3409 32.2342 26.9467 30.5892 26.9272 28.5917C26.9076 27.0837 25.9676 25.7325 24.538 25.2233V25.1058C25.6934 24.4792 26.1242 23.0692 25.5172 21.9333C25.3017 21.5417 24.9492 21.1696 24.538 20.9542V13.7083H25.4584V11.75H35.2501V39.1667H33.2917V43.0833H43.0834V39.1667H41.1251V11.75ZM9.79175 29.9429V32.7237L7.83341 34.6821V31.9013L9.79175 29.9429ZM7.83341 39.1667V37.6783L9.79175 35.72V38.5008L9.12591 39.1667H7.83341ZM7.83341 14.2762L9.79175 12.3179V15.0988L7.83341 17.0571V14.2762ZM7.83341 20.1512L9.79175 18.1929V20.9737L7.83341 22.9321V20.1512ZM7.83341 26.0262L9.79175 24.0679V26.8487L7.83341 28.8071V25.9283V26.0262ZM39.1667 29.9429V32.7237L37.2084 34.6821V31.9013L39.1667 29.9429ZM37.2084 39.1667V37.6783L39.1667 35.72V38.5008L38.5009 39.1667H37.2084ZM37.2084 14.2762L39.1667 12.3179V15.0988L37.2084 17.0571V14.2762ZM37.2084 20.1512L39.1667 18.1929V20.9737L37.2084 22.9321V20.1512ZM37.2084 26.0262L39.1667 24.0679V26.8487L37.2084 28.8071V25.9283V26.0262Z" fill="#FF490F"/>
</svg>
