<svg width="172" height="185" viewBox="0 0 172 185" fill="none" xmlns="http://www.w3.org/2000/svg">
<path d="M171.764 144.696C171.764 144.037 171.764 144.037 171.764 143.377C171.764 142.718 171.104 142.718 171.104 142.058C171.104 141.399 170.445 141.399 170.445 140.74C170.445 140.08 169.786 140.08 169.126 140.08L168.467 139.421L98.573 104.474C101.87 99.8585 101.87 93.9241 99.8918 88.6491L93.298 71.5053V59.6366H99.8918C101.87 59.6366 103.848 58.3178 105.167 56.9991L118.354 37.2178C118.354 35.8991 119.014 34.5803 119.014 33.2616V6.8866C119.014 2.93035 116.376 0.292847 112.42 0.292847H59.6699C55.7137 0.292847 53.0762 2.93035 53.0762 6.8866V33.2616C53.0762 34.5803 53.7355 35.8991 54.3949 37.2178L67.5824 56.9991C68.9012 58.9772 70.8793 59.6366 72.8574 59.6366H79.4512V72.8241C79.4512 73.4835 79.4512 74.8022 80.1105 75.4616L87.3637 93.9241C88.0231 95.9022 87.3637 97.221 86.7043 97.8803C86.0449 98.5397 85.3855 99.8585 83.4074 99.8585C81.4293 99.8585 79.4512 97.8803 79.4512 95.9022V92.6053C79.4512 88.6491 76.8137 86.0116 72.8574 86.0116C68.9012 86.0116 66.2637 88.6491 66.2637 92.6053V95.2428C66.2637 99.1991 67.5824 103.155 70.2199 106.452L3.62305 139.421L2.96367 140.08C2.3043 140.08 2.3043 140.74 1.64492 140.74C1.64492 140.74 0.985546 141.399 0.985546 142.058C0.985546 142.718 0.326172 142.718 0.326172 143.377C0.326172 144.037 0.326172 144.037 0.326172 144.696V145.355V178.324C0.326172 182.28 2.96367 184.918 6.91992 184.918H165.17C169.126 184.918 171.764 182.28 171.764 178.324V145.355C171.764 145.355 171.764 144.696 171.764 144.696ZM86.0449 113.046L137.476 138.762H34.6137L86.0449 113.046Z" fill="#C4C4C4" fill-opacity="0.11"/>
</svg>
