<svg width="12" height="16" viewBox="0 0 12 16" fill="none" xmlns="http://www.w3.org/2000/svg">
<path d="M6.34509 0.765259C3.33117 0.765259 0.893555 3.11148 0.893555 6.01241C0.893555 7.3167 1.28295 8.53854 1.99165 9.64044C2.7315 10.7948 3.70499 11.7843 4.45263 12.9386C4.81866 13.5008 5.08345 14.0256 5.36381 14.6327C5.5663 15.045 5.72984 15.7571 6.34509 15.7571C6.96033 15.7571 7.12388 15.045 7.31857 14.6327C7.60673 14.0256 7.86373 13.5008 8.22976 12.9386C8.9774 11.7918 9.95088 10.8023 10.6907 9.64044C11.4072 8.53854 11.7966 7.3167 11.7966 6.01241C11.7966 3.11148 9.359 0.765259 6.34509 0.765259ZM6.34509 8.07379C5.27036 8.07379 4.39811 7.23425 4.39811 6.19981C4.39811 5.16537 5.27036 4.32582 6.34509 4.32582C7.41982 4.32582 8.29206 5.16537 8.29206 6.19981C8.29206 7.23425 7.41982 8.07379 6.34509 8.07379Z" fill="white"/>
</svg>
