<svg width="172" height="34" viewBox="0 0 172 34" fill="none" xmlns="http://www.w3.org/2000/svg">
<path d="M17.9536 13.2826H16.1149L16.2291 19.5755L3.76318 33.309H6.90963L16.2291 23.567V33.309L16.6916 33.5375L24.5891 22.8761L24.8233 33.5375L37.2891 33.309V28.0497V23.3329H35.102V8.60571H32.9549L25.8968 17.8109V11.1354L17.9536 19.8039V13.2826Z" fill="black" stroke="#E66F1A" stroke-width="0.00840031"/>
<path d="M0.941895 11.9121V0.87381L15.8176 0.491211L15.9603 8.25169H17.3023L24.0749 0.61113H25.9307V5.20232L26.1306 10.1133L25.5196 11.124L17.9932 19.3528V13.1684L17.782 13.2997H16.006V13.8194H13.8418L7.96002 18.9645H7.05777V11.9121H0.941895Z" fill="#FF490F" stroke="#E66F1A" stroke-width="0.00840031"/>
<path fill-rule="evenodd" clip-rule="evenodd" d="M0 0.0684814V11.4208V12.5629H6.76116L6.76116 18.3875V19.5296L7.90325 19.5296L8.36005 19.5296L8.36008 19.5297L8.36009 19.5296L14.21 14.1847H15.6351L15.6351 19.5033L3.09854 33.0786L2.24997 33.9314H7.25802L7.25804 33.9274L7.26107 33.9302L15.6351 24.7272L15.6351 33.9314L15.6352 33.9314H17.4282L17.4282 33.9314L17.4282 33.9314L24.2579 24.1714V32.7893H25.4L25.4 20.5347L24.2579 22.1793L16.8366 32.7893H16.7772V21.8595L16.777 21.8598V21.8595L16.6043 22.048L15.6351 23.1044V23.1058L6.76293 32.7893H4.90739L16.7771 19.9523H16.7772V19.9522V13.0426H15.6351L13.7736 13.0426L13.7735 13.0426V13.0427L7.92121 18.3875H7.90325V11.4208L6.79542 11.4208H1.14209L1.14209 1.21065H15.0984V8.04029V9.18234V9.18237H17.4397L17.4397 9.18238L24.397 1.22202H25.4V10.7447L18.1706 18.5867V13.0427H17.7366V13.0427H16.7772V13.4767H17.7366V20.7175L17.7366 20.7175L25.4 12.429V19.4041L25.611 19.1336L25.6113 19.1356L26.5241 17.9635L26.5421 17.9404L33.3624 9.18234H35.7473V8.04025L32.8008 8.04025V8.04035L32.8007 8.04028L26.5421 16.1917V0.0799508L25.4 0.0799509V0.0799301H23.8925V0.0799544L16.9181 8.04029H16.2405L16.2405 1.21065H16.2405V0.0685669H16.2405V0.0684853L15.0984 0.0684853V0.0685669H1.14209V0.0684814H0ZM37.8602 33.9314H24.258V32.7893H37.8602V33.9314ZM34.6053 24.0409H37.8602V22.8988H35.7473V9.18237H34.6052V22.8988H34.6053V24.0409ZM36.7181 24.0409V32.7893H37.8602V24.0409H36.7181Z" fill="white"/>
<path d="M48.5479 16.101H46.183V6.90405H48.5479V10.1755H52.0165V6.90405H54.3814V16.101H52.0165V12.2777H48.5479V16.101ZM58.9642 13.3682C59.4285 13.8587 60.0065 14.1039 60.6985 14.1039C61.3817 14.1039 61.9554 13.8587 62.4196 13.3682C62.8839 12.8777 63.116 12.2558 63.116 11.5025C63.116 10.7492 62.8839 10.1273 62.4196 9.63685C61.9554 9.14635 61.3817 8.90109 60.6985 8.90109C60.0065 8.90109 59.4285 9.14635 58.9642 9.63685C58.5088 10.1186 58.281 10.7405 58.281 11.5025C58.281 12.2645 58.5088 12.8864 58.9642 13.3682ZM64.1671 14.8922C63.2474 15.8207 62.0912 16.2849 60.6985 16.2849C59.3058 16.2849 58.1497 15.8207 57.23 14.8922C56.3103 13.9638 55.8504 12.8339 55.8504 11.5025C55.8504 10.1711 56.3103 9.04124 57.23 8.11279C58.1497 7.18434 59.3058 6.72012 60.6985 6.72012C62.0912 6.72012 63.2474 7.18434 64.1671 8.11279C65.0867 9.04124 65.5466 10.1711 65.5466 11.5025C65.5466 12.8339 65.0867 13.9638 64.1671 14.8922ZM71.7496 16.101H67.0197V6.90405H71.4999C72.3671 6.90405 73.059 7.10989 73.5758 7.52156C74.1013 7.92447 74.3641 8.4938 74.3641 9.22956C74.3641 9.64998 74.259 10.0179 74.0488 10.3332C73.8473 10.6485 73.5933 10.8762 73.2868 11.0164C73.7422 11.1215 74.1451 11.3886 74.4955 11.8178C74.8546 12.2558 75.0342 12.8032 75.0342 13.4601C75.0342 14.2484 74.732 14.8878 74.1276 15.3783C73.5408 15.8601 72.7481 16.101 71.7496 16.101ZM69.3846 12.1726V14.1302H71.2897C71.6488 14.1302 71.9291 14.047 72.1306 13.8806C72.3408 13.7054 72.4459 13.4645 72.4459 13.1579C72.4459 12.8514 72.3408 12.6105 72.1306 12.4353C71.9204 12.2602 71.6401 12.1726 71.2897 12.1726H69.3846ZM69.3846 8.82226V10.4252H71.1452C71.4342 10.4252 71.662 10.3551 71.8284 10.2149C72.0036 10.0748 72.0912 9.8821 72.0912 9.63685C72.0912 9.38284 72.0036 9.18576 71.8284 9.04562C71.662 8.89672 71.4342 8.82226 71.1452 8.82226H69.3846ZM79.0055 13.3682C79.4697 13.8587 80.0478 14.1039 80.7397 14.1039C81.4229 14.1039 81.9966 13.8587 82.4609 13.3682C82.9251 12.8777 83.1572 12.2558 83.1572 11.5025C83.1572 10.7492 82.9251 10.1273 82.4609 9.63685C81.9966 9.14635 81.4229 8.90109 80.7397 8.90109C80.0478 8.90109 79.4697 9.14635 79.0055 9.63685C78.55 10.1186 78.3223 10.7405 78.3223 11.5025C78.3223 12.2645 78.55 12.8864 79.0055 13.3682ZM84.2083 14.8922C83.2886 15.8207 82.1324 16.2849 80.7397 16.2849C79.3471 16.2849 78.1909 15.8207 77.2712 14.8922C76.3515 13.9638 75.8917 12.8339 75.8917 11.5025C75.8917 10.1711 76.3515 9.04124 77.2712 8.11279C78.1909 7.18434 79.3471 6.72012 80.7397 6.72012C82.1324 6.72012 83.2886 7.18434 84.2083 8.11279C85.128 9.04124 85.5878 10.1711 85.5878 11.5025C85.5878 12.8339 85.128 13.9638 84.2083 14.8922ZM91.8959 16.2849C90.4244 16.2849 89.2025 15.8382 88.2303 14.9448C87.258 14.0514 86.7719 12.9039 86.7719 11.5025C86.7719 10.1011 87.2537 8.95365 88.2171 8.06023C89.1894 7.16682 90.4113 6.72012 91.8828 6.72012C92.7587 6.72012 93.5513 6.89529 94.2608 7.24565V9.57115C93.5426 9.12445 92.7587 8.90109 91.909 8.90109C91.1383 8.90109 90.4945 9.14635 89.9777 9.63685C89.4609 10.1273 89.2025 10.7492 89.2025 11.5025C89.2025 12.2733 89.4653 12.8996 89.9908 13.3813C90.5251 13.863 91.1952 14.1039 92.001 14.1039C92.9645 14.1039 93.7703 13.8587 94.4185 13.3682V15.7068C93.6652 16.0922 92.8244 16.2849 91.8959 16.2849ZM97.8722 16.101H95.8883V6.90405H98.2533V12.0937L102.05 6.90405H104.1V16.101H101.735V10.8587L97.8722 16.101ZM109.944 16.101H105.858V6.90405H112.729V8.92737H108.236V9.92589H109.944C111.039 9.92589 111.91 10.2149 112.558 10.793C113.206 11.3711 113.53 12.1156 113.53 13.0266C113.53 13.9375 113.206 14.6776 112.558 15.247C111.91 15.8163 111.039 16.101 109.944 16.101ZM108.236 11.7784V14.0776H109.76C110.18 14.0776 110.513 13.9769 110.758 13.7755C111.012 13.574 111.139 13.2981 111.139 12.9477C111.139 12.5886 111.012 12.3039 110.758 12.0937C110.513 11.8835 110.18 11.7784 109.76 11.7784H108.236ZM117.204 16.101H114.839V6.90405H117.191L119.516 10.4383L121.855 6.90405H124.194V16.101H121.842V10.4908L120.199 12.9609H118.899L117.204 10.4908V16.101ZM133.045 16.101H125.95V6.90405H132.94V8.97992H128.315V10.2281H131.994V12.2251H128.315V14.0251H133.045V16.101ZM138.991 16.101H136.626V8.97992H133.867V6.90405H141.764V8.97992H138.991V16.101ZM143.453 16.101H140.957L144.82 6.8515H147.093L150.955 16.101H148.42L147.645 14.1565H144.229L143.453 16.101ZM145.937 9.80765L144.978 12.2645H146.896L145.937 9.80765ZM152.168 16.1798C151.721 16.1798 151.384 16.1185 151.156 15.9958V13.828C151.392 13.9419 151.624 13.9988 151.852 13.9988C152.308 13.9988 152.601 13.7185 152.732 13.1579C152.881 12.5886 152.96 11.4281 152.969 9.67626L152.995 6.90405H159.867V16.101H157.502V8.97992H155.294L155.268 9.99158C155.198 12.4528 154.962 14.0557 154.559 14.8002C154.059 15.7199 153.262 16.1798 152.168 16.1798ZM161.829 16.1798C161.382 16.1798 161.045 16.1185 160.817 15.9958V13.828C161.054 13.9419 161.286 13.9988 161.514 13.9988C161.969 13.9988 162.262 13.7185 162.394 13.1579C162.543 12.5886 162.622 11.4281 162.63 9.67626L162.657 6.90405H169.528V16.101H167.163V8.97992H164.956L164.93 9.99158C164.859 12.4528 164.623 14.0557 164.22 14.8002C163.721 15.7199 162.924 16.1798 161.829 16.1798Z" fill="black"/>
<path d="M48.1874 28.0034H46.0948V19.7278H47.9155L51.5331 24.2794V19.7278H53.6138V28.0034H51.8523L48.1874 23.4282V28.0034ZM57.7342 25.5444C58.152 25.9857 58.6721 26.2064 59.2948 26.2064C59.9095 26.2064 60.4258 25.9857 60.8435 25.5444C61.2612 25.103 61.4701 24.5434 61.4701 23.8656C61.4701 23.1878 61.2612 22.6282 60.8435 22.1869C60.4258 21.7455 59.9095 21.5248 59.2948 21.5248C58.6721 21.5248 58.152 21.7455 57.7342 22.1869C57.3244 22.6203 57.1195 23.1799 57.1195 23.8656C57.1195 24.5513 57.3244 25.1109 57.7342 25.5444ZM62.4159 26.9158C61.5883 27.7512 60.5479 28.1689 59.2948 28.1689C58.0416 28.1689 57.0013 27.7512 56.1737 26.9158C55.3461 26.0803 54.9324 25.0636 54.9324 23.8656C54.9324 22.6676 55.3461 21.6509 56.1737 20.8155C57.0013 19.98 58.0416 19.5623 59.2948 19.5623C60.5479 19.5623 61.5883 19.98 62.4159 20.8155C63.2434 21.6509 63.6572 22.6676 63.6572 23.8656C63.6572 25.0636 63.2434 26.0803 62.4159 26.9158ZM69.2502 28.0507H67.2286L63.8474 19.7278H66.2L68.2571 25.1188L70.326 19.7278H72.6432L69.2502 28.0507ZM75.5139 25.5444C75.9316 25.9857 76.4518 26.2064 77.0744 26.2064C77.6892 26.2064 78.2054 25.9857 78.6231 25.5444C79.0408 25.103 79.2497 24.5434 79.2497 23.8656C79.2497 23.1878 79.0408 22.6282 78.6231 22.1869C78.2054 21.7455 77.6892 21.5248 77.0744 21.5248C76.4518 21.5248 75.9316 21.7455 75.5139 22.1869C75.104 22.6203 74.8991 23.1799 74.8991 23.8656C74.8991 24.5513 75.104 25.1109 75.5139 25.5444ZM80.1955 26.9158C79.3679 27.7512 78.3276 28.1689 77.0744 28.1689C75.8212 28.1689 74.7809 27.7512 73.9533 26.9158C73.1258 26.0803 72.712 25.0636 72.712 23.8656C72.712 22.6676 73.1258 21.6509 73.9533 20.8155C74.7809 19.98 75.8212 19.5623 77.0744 19.5623C78.3276 19.5623 79.3679 19.98 80.1955 20.8155C81.023 21.6509 81.4368 22.6676 81.4368 23.8656C81.4368 25.0636 81.023 26.0803 80.1955 26.9158ZM85.6825 28.1689C84.4057 28.1689 83.3378 27.8734 82.4787 27.2823V25.107C82.8097 25.4143 83.2826 25.6823 83.8973 25.9109C84.4885 26.1316 85.0559 26.2419 85.5997 26.2419C86.4431 26.2419 86.8647 26.0252 86.8647 25.5917C86.8647 25.4183 86.7583 25.2567 86.5455 25.107C86.4982 25.0675 86.3209 24.9966 86.0135 24.8942L85.2687 24.6695L84.6658 24.4922L84.122 24.2794C83.8776 24.1848 83.6964 24.0981 83.5781 24.0193C83.1525 23.704 82.8846 23.4518 82.7742 23.2627C82.5772 22.8844 82.4787 22.4785 82.4787 22.045C82.4787 21.2568 82.7663 20.646 83.3417 20.2125C83.9249 19.779 84.721 19.5623 85.7298 19.5623C86.7386 19.5623 87.6726 19.7909 88.5317 20.248V22.2933C88.1612 22.0647 87.7238 21.8755 87.2194 21.7258C86.6992 21.5682 86.2106 21.4893 85.7534 21.4893C85.0283 21.4893 84.6658 21.6706 84.6658 22.0332C84.6658 22.1908 84.7801 22.3169 85.0086 22.4115L85.3869 22.5415C85.4736 22.573 85.6589 22.6282 85.9426 22.707C86.2263 22.7858 86.4194 22.841 86.5219 22.8725C87.31 23.1326 87.9327 23.4597 88.3898 23.8538C88.8391 24.24 89.0637 24.7917 89.0637 25.5089C89.0637 26.3128 88.7484 26.9591 88.1179 27.4478C87.4953 27.9285 86.6835 28.1689 85.6825 28.1689ZM92.4536 28.0034H90.3256V19.7278H92.4536V28.0034ZM98.3443 28.0034H94.0882V19.7278H98.1196C98.8999 19.7278 99.5226 19.913 99.9876 20.2835C100.46 20.646 100.697 21.1583 100.697 21.8204C100.697 22.1987 100.602 22.5297 100.413 22.8134C100.232 23.0972 100.003 23.3021 99.7275 23.4282C100.137 23.5228 100.5 23.7632 100.815 24.1494C101.138 24.5434 101.3 25.036 101.3 25.6271C101.3 26.3365 101.028 26.9118 100.484 27.3532C99.956 27.7867 99.2428 28.0034 98.3443 28.0034ZM96.2163 24.4686V26.2301H97.9305C98.2536 26.2301 98.5058 26.1552 98.6871 26.0055C98.8763 25.8478 98.9709 25.6311 98.9709 25.3552C98.9709 25.0794 98.8763 24.8626 98.6871 24.705C98.498 24.5474 98.2458 24.4686 97.9305 24.4686H96.2163ZM96.2163 21.4539V22.8962H97.8004C98.0605 22.8962 98.2655 22.8331 98.4152 22.707C98.5728 22.5809 98.6517 22.4075 98.6517 22.1869C98.6517 21.9583 98.5728 21.781 98.4152 21.6548C98.2655 21.5209 98.0605 21.4539 97.8004 21.4539H96.2163ZM104.633 28.0034H102.505V19.7278H104.621L106.713 22.908L108.818 19.7278H110.922V28.0034H108.806V22.9553L107.328 25.1779H106.158L104.633 22.9553V28.0034ZM118.887 28.0034H112.503V19.7278H118.792V21.5957H114.631V22.7189H117.941V24.5158H114.631V26.1355H118.887V28.0034ZM124.238 28.0034H122.11V21.5957H119.627V19.7278H126.732V21.5957H124.238V28.0034ZM128.253 28.0034H126.006L129.482 19.6805H131.528L135.003 28.0034H132.722L132.024 26.2537H128.95L128.253 28.0034ZM130.487 22.3405L129.624 24.5513H131.35L130.487 22.3405ZM142.017 28.0034H135.917V19.7278H138.045V26.1355H142.017V28.0034ZM149.221 28.0034H143.121V19.7278H145.249V26.1355H149.221V28.0034Z" fill="#FF490F"/>
</svg>
