<svg width="48" height="50" viewBox="0 0 48 50" fill="none" xmlns="http://www.w3.org/2000/svg">
<path d="M33.0924 12.2488L12.2465 0L0 20.8482L20.8436 33.0947L33.0924 12.2488ZM14.0346 8.76192L25.1181 15.9876L21.9197 20.8917L10.8362 13.666L14.0346 8.76192ZM47.3217 13.2058C47.0195 13.7301 46.415 13.9568 45.9869 13.7072C44.5834 12.8968 43.1777 12.0863 41.7765 11.2758C41.1698 10.9255 41.227 10.811 40.8699 11.4246C35.1805 21.2809 29.4865 31.1349 23.7971 40.9958C23.0278 42.3237 23.2316 42.2825 21.9014 41.5155L20.5208 40.7188L8.90616 34.0105C8.07965 33.5366 7.73622 32.5613 8.14604 31.8561C8.55586 31.1487 9.56553 30.9563 10.3943 31.4348C13.9087 33.4679 17.4231 35.4941 20.9398 37.5249C22.1326 38.2141 21.9472 38.2415 22.6363 37.051L38.5781 9.43503C38.8002 9.05726 39.0131 8.6795 39.2306 8.30402C39.7183 7.46377 39.5809 7.4569 40.4234 7.94457L47.0859 11.7909C47.5209 12.0428 47.6262 12.677 47.3217 13.2058ZM31.8538 37.5432C28.6852 37.5432 26.1163 40.1098 26.1163 43.2807C26.1163 46.4494 28.6852 49.0182 31.8538 49.0182C35.0225 49.0182 37.5913 46.4471 37.5913 43.2807C37.5913 40.1143 35.0225 37.5432 31.8538 37.5432ZM31.8538 46.0945C30.2993 46.0945 29.0423 44.8353 29.0423 43.2807C29.0423 41.7284 30.2993 40.4692 31.8538 40.4692C33.4061 40.4692 34.6653 41.7284 34.6653 43.2807C34.6653 44.8353 33.4061 46.0945 31.8538 46.0945ZM16.1387 11.9924L21.3175 15.3694L19.8225 17.6612L14.6436 14.2842L16.1387 11.9924Z" fill="#FF490F"/>
</svg>
