<svg width="169" height="38" viewBox="0 0 169 38" fill="none" xmlns="http://www.w3.org/2000/svg">
<path d="M0.507019 0.000488281L9.40954 4.50321C12.0115 5.81865 14.6166 7.10514 17.2121 8.43344C17.3393 8.51001 17.485 8.55047 17.6334 8.55047C17.7819 8.55047 17.9276 8.51001 18.0548 8.43344C23.4688 5.68678 28.887 2.94977 34.3096 0.222409L34.747 0.0165655V37.476C34.747 37.64 34.747 37.7976 34.747 37.9745H0.507019V0.000488281ZM31.1223 35.8132V23.9646L30.6334 24.1383L9.58965 32.2239C7.87862 32.8671 6.16437 33.5361 4.44368 34.2051C4.3086 34.2566 4.12206 34.3852 4.12206 34.4946C4.08025 34.9094 4.12206 35.334 4.12206 35.8229L17.6495 30.6383V35.8132H31.1223ZM4.12528 22.5881L4.51444 22.4498L21.7534 15.834C24.7703 14.6761 27.786 13.5151 30.8007 12.3508C30.9326 12.2993 31.1223 12.1707 31.1223 12.0613C31.1609 11.6593 31.1384 11.2509 31.1384 10.7749L17.6302 15.953V10.807H4.12206L4.12528 22.5881ZM31.1416 17.262C30.939 17.3327 30.7943 17.3778 30.6527 17.4324L11.6513 24.7269C9.24552 25.651 6.83763 26.5773 4.4276 27.5057C4.30217 27.5539 4.10598 27.6729 4.10598 27.7694C4.07382 28.2615 4.10598 28.7568 4.10598 29.2939L4.52409 29.1427L23.3455 21.9223L30.8168 19.0534C30.9808 18.9891 31.1577 18.9666 31.1384 18.7093C31.1223 18.2494 31.1416 17.7894 31.1416 17.262ZM4.10598 32.642C4.29252 32.5777 4.4276 32.5391 4.55625 32.4908L22.3677 25.6499C25.168 24.5778 27.9683 23.5004 30.7685 22.4176C30.9068 22.3629 31.1159 22.2439 31.1223 22.1442C31.1609 21.6521 31.1384 21.1536 31.1384 20.6165C30.9679 20.6744 30.8489 20.7098 30.7331 20.7548L14.7517 26.8882C11.3211 28.2068 7.89041 29.5298 4.45976 30.857C4.33112 30.9052 4.13814 31.0146 4.13814 31.1079C4.10598 31.5999 4.10598 32.0985 4.10598 32.642ZM4.10598 25.9362C4.29895 25.8718 4.4276 25.8397 4.54017 25.7946L23.2811 18.5935C25.7791 17.6308 28.2802 16.6659 30.7846 15.6989C30.9165 15.6474 31.1062 15.5445 31.1255 15.4545C31.1577 14.9495 31.1416 14.4446 31.1416 13.8978C30.9229 13.975 30.7653 14.0265 30.6141 14.0844L12.0822 21.2147C9.53283 22.1968 6.98129 23.1756 4.4276 24.1512C4.29895 24.2026 4.10598 24.3409 4.10598 24.4503C4.08347 24.9295 4.10598 25.4023 4.10598 25.9362V25.9362Z" fill="#C4C4C4"/>
<path d="M38.5358 37.981V36.6462C38.7127 36.6462 38.8574 36.627 38.9893 36.627C81.8058 36.627 124.625 36.627 167.445 36.627C167.767 36.627 167.934 36.7202 168.005 37.0354C168.076 37.3506 168.188 37.6787 168.285 38.0003L38.5358 37.981Z" fill="#C4C4C4"/>
<path d="M40.694 19.774H38.5455V19.3816C38.5455 16.1975 38.5455 13.0134 38.5455 9.82937C38.5455 8.8645 39.0569 8.30809 40.0411 8.24055C41.3855 8.14406 41.9419 8.4882 42.4307 9.73931C43.3956 12.2094 44.3605 14.6859 45.3253 17.1559C45.4309 17.3634 45.5558 17.5605 45.6984 17.7445C45.847 17.5617 45.9754 17.3633 46.0812 17.1527C47.0299 14.7309 47.9659 12.3026 48.9082 9.87761C48.9404 9.79399 48.9758 9.71358 49.0079 9.62996C49.5064 8.31452 50.3941 7.98325 51.8832 8.34347C52.1765 8.41384 52.4349 8.58671 52.6118 8.83088C52.7887 9.07505 52.8725 9.37443 52.8481 9.67498C52.8481 12.9716 52.8481 16.2715 52.8481 19.5713C52.8418 19.6378 52.8289 19.7036 52.8095 19.7675H50.7093C50.7093 19.0117 50.7093 18.272 50.7093 17.5322C50.7093 15.9799 50.7168 14.4264 50.7318 12.8719C50.7318 12.2705 50.7576 11.6658 50.7318 11.0644C50.7056 10.8867 50.6548 10.7135 50.5807 10.5498C50.4533 10.6712 50.3449 10.8111 50.259 10.9647C49.426 13.1035 48.6091 15.2455 47.7858 17.3972C47.5864 17.9085 47.3805 18.4199 47.1843 18.9345C47.0633 19.2257 46.8593 19.4749 46.5978 19.651C46.3362 19.8272 46.0287 19.9226 45.7134 19.9253C45.398 19.9281 45.0889 19.838 44.8243 19.6665C44.5597 19.4949 44.3515 19.2493 44.2254 18.9602C43.565 17.2621 42.9078 15.565 42.2538 13.8689C41.8936 12.9362 41.5356 12.0035 41.1796 11.0708C41.1633 11.0082 41.1396 10.9477 41.1089 10.8907C41.0188 10.7781 40.9191 10.672 40.8258 10.5691C40.7505 10.7019 40.6983 10.8466 40.6715 10.9969C40.6715 13.7564 40.6715 16.5159 40.694 19.2754V19.774Z" fill="#C4C4C4"/>
<path d="M115.388 33.0465C115.506 32.8546 115.614 32.6559 115.709 32.4514C116.681 29.9599 117.645 27.4641 118.604 24.9641C118.858 24.3208 119.192 23.713 119.948 23.5586C120.539 23.4057 121.163 23.4579 121.72 23.7065C121.934 23.7989 122.118 23.95 122.249 24.1425C122.381 24.3349 122.455 24.5607 122.463 24.7936C122.463 24.9351 122.463 25.0766 122.463 25.2182V35.0244H120.321C120.321 34.1239 120.321 33.2426 120.321 32.3614C120.321 30.9881 120.353 29.6147 120.37 28.2446C120.37 27.6014 120.386 26.9581 120.37 26.3149C120.34 26.1394 120.285 25.9693 120.206 25.8099C120.079 25.9379 119.97 26.0829 119.884 26.2409C119.212 27.9584 118.556 29.6823 117.893 31.4062C117.536 32.326 117.195 33.2523 116.816 34.1625C116.436 35.0727 115.831 35.3654 114.886 35.1659C114.666 35.1193 114.461 35.0167 114.292 34.868C114.123 34.7192 113.995 34.5294 113.921 34.3169C113.599 33.5321 113.297 32.7441 112.991 31.9561C112.273 30.0907 111.555 28.2253 110.837 26.3599C110.748 26.1587 110.647 25.9632 110.534 25.7746L110.383 25.7971C110.336 25.9937 110.305 26.1938 110.29 26.3953C110.307 29.142 110.328 31.8886 110.354 34.6353C110.354 34.7575 110.354 34.8829 110.338 35.0309H108.215C108.215 34.8829 108.196 34.7607 108.196 34.6353V25.0509C108.196 24.189 108.534 23.7097 109.383 23.5586C110.766 23.3174 111.515 23.6036 112.027 24.9062C113.008 27.4116 113.976 29.9235 114.953 32.4322C115.037 32.6412 115.153 32.8342 115.253 33.0368L115.388 33.0465Z" fill="#C4C4C4"/>
<path d="M65.7418 19.7807H63.6062V10.7399L63.484 10.6917C63.3662 10.81 63.2586 10.938 63.1623 11.0744C61.5414 13.6774 59.9247 16.2826 58.3123 18.8898C57.7494 19.8 57.0258 20.0959 55.9902 19.8772C55.728 19.8346 55.4849 19.7133 55.2931 19.5296C55.1013 19.3458 54.9698 19.1081 54.9159 18.848C54.8598 18.624 54.8306 18.394 54.8291 18.163C54.8291 14.9789 54.8291 11.7948 54.8291 8.61077C54.8291 8.54644 54.8291 8.48534 54.8291 8.38564H56.9615C56.9615 9.16396 56.9615 9.92942 56.9615 10.6949C56.9615 12.7747 56.9529 14.8545 56.9357 16.9344C56.9243 16.9971 56.9243 17.0614 56.9357 17.1241C56.9809 17.2197 57.0324 17.3121 57.0901 17.4007C57.1705 17.3461 57.2767 17.3107 57.3249 17.2335C57.5758 16.8475 57.8073 16.4487 58.0485 16.0531C59.3865 13.8661 60.7255 11.678 62.0656 9.4888C62.2123 9.24711 62.3802 9.01893 62.5673 8.80696C62.8761 8.49565 63.2775 8.29287 63.7113 8.22908C64.145 8.16529 64.5878 8.24392 64.9731 8.45317C65.1609 8.56745 65.3201 8.72299 65.4388 8.90801C65.5575 9.09302 65.6325 9.30264 65.6581 9.52096C65.7107 9.8237 65.7376 10.1303 65.7386 10.4376C65.7386 13.4544 65.7386 16.4712 65.7386 19.4881C65.7546 19.5749 65.7482 19.6489 65.7418 19.7807Z" fill="#C4C4C4"/>
<path d="M49.455 35.0382H47.3323V26.0166L47.2037 25.9555C47.0776 26.0946 46.9595 26.2406 46.8499 26.3929C45.2418 28.9981 43.5983 31.5936 42.0094 34.2116C41.3919 35.2311 40.4013 35.3308 39.5426 35.1025C39.3172 35.0428 39.1133 34.9205 38.9545 34.7497C38.7957 34.579 38.6885 34.3668 38.6453 34.1376C38.5854 33.901 38.5541 33.658 38.552 33.414C38.552 30.2599 38.552 27.1037 38.552 23.9454C38.552 23.8457 38.552 23.746 38.5713 23.6238H40.6972C40.6972 24.386 40.6972 25.1257 40.6972 25.8751L40.6651 32.1918C40.6586 32.2301 40.6586 32.2693 40.6651 32.3076C40.7069 32.433 40.7583 32.552 40.8066 32.6742C40.9095 32.5938 41.0446 32.5359 41.1089 32.4298C41.8004 31.3202 42.479 30.201 43.1609 29.0849C44.0421 27.6408 44.9201 26.1903 45.8078 24.7527C46.1294 24.2445 46.4511 23.7396 47.0943 23.5884C48.3519 23.2861 49.3232 23.746 49.4454 25.0421C49.4689 25.2203 49.4828 25.3996 49.4872 25.5792C49.4872 28.6454 49.4872 31.7115 49.4872 34.7777C49.4775 34.842 49.4711 34.9192 49.455 35.0382Z" fill="#C4C4C4"/>
<path d="M59.5988 23.6241H61.7216V35.0353H59.6085V30.063H53.6102V35.0289H51.4489V34.5722C51.4489 31.0665 51.4489 27.564 51.4489 24.0583C51.4489 23.682 51.5583 23.5727 51.9249 23.592C52.462 23.6241 52.9991 23.592 53.5781 23.592C53.5781 23.7753 53.6006 23.9136 53.6006 24.0712C53.6006 25.3577 53.6006 26.6442 53.6006 27.9307C53.6006 28.2523 53.7035 28.3423 54.0187 28.3391C55.7554 28.3262 57.4911 28.3262 59.2258 28.3391C59.5217 28.3391 59.6246 28.2651 59.6214 27.9532C59.6021 26.6667 59.6214 25.3609 59.6214 24.0615L59.5988 23.6241Z" fill="#C4C4C4"/>
<path d="M137.287 23.6009V24.6043C137.287 25.7332 137.287 26.8557 137.287 27.9942C137.287 28.2354 137.351 28.3384 137.608 28.3352C139.419 28.3352 141.233 28.3352 143.044 28.3352C143.122 28.331 143.199 28.3213 143.275 28.3062V23.6298H145.411V35.0346H143.298V30.0558H137.3V35.0506C136.605 35.0506 135.942 35.0506 135.283 35.0506C135.238 35.0506 135.167 34.9574 135.154 34.8963C135.143 34.7947 135.143 34.6922 135.154 34.5907C135.154 31.085 135.154 27.5825 135.154 24.0769C135.154 23.6684 135.283 23.5783 135.659 23.5976C136.171 23.6234 136.708 23.6009 137.287 23.6009Z" fill="#C4C4C4"/>
<path d="M126.619 28.3611H133.398V30.0432H126.619V31.3908C126.619 31.8378 126.619 32.2881 126.619 32.7384C126.607 32.8188 126.614 32.9007 126.639 32.9781C126.663 33.0555 126.705 33.1264 126.76 33.1856C126.816 33.2449 126.884 33.2909 126.96 33.3204C127.035 33.3498 127.117 33.362 127.197 33.3559C127.339 33.3559 127.481 33.3559 127.622 33.3559H133.617V35.0315C133.488 35.0315 133.353 35.0541 133.218 35.0541H126.001C124.93 35.0541 124.464 34.5813 124.464 33.491C124.464 30.7604 124.464 28.0234 124.464 25.2928C124.464 24.2861 124.959 23.6139 126.017 23.6172C128.484 23.6172 130.951 23.6172 133.414 23.6011C133.461 23.6086 133.506 23.6216 133.55 23.6397V25.325H127.439C126.795 25.325 126.619 25.4986 126.619 26.1483V28.3611Z" fill="#C4C4C4"/>
<path d="M87.5122 31.0114V35.0252H85.3445V34.575C85.3445 31.5196 85.3445 28.4663 85.3445 25.4151C85.3445 25.2736 85.3445 25.1321 85.3445 24.9906C85.3407 24.8164 85.3715 24.6432 85.4354 24.481C85.4992 24.3189 85.5946 24.1711 85.7162 24.0462C85.8377 23.9214 85.983 23.822 86.1433 23.7539C86.3037 23.6858 86.476 23.6502 86.6503 23.6494C87.5347 23.6044 88.4224 23.6044 89.3069 23.6044C90.4615 23.6044 91.6194 23.5819 92.774 23.6398C94.5815 23.7266 95.3116 24.3602 95.5271 26.142C95.6301 27.0193 95.6139 27.9064 95.4788 28.7793C95.2473 30.3103 94.3339 31.0082 92.7836 31.0114H87.5122ZM87.5122 29.2746C89.1203 29.2746 90.6674 29.2939 92.2176 29.2746C92.4868 29.2822 92.7488 29.1864 92.9497 29.007C93.1507 28.8276 93.2753 28.5781 93.2982 28.3098C93.3823 27.6911 93.3877 27.0643 93.3143 26.4443C93.3087 26.2942 93.2728 26.1467 93.2089 26.0106C93.1451 25.8746 93.0545 25.7529 92.9425 25.6526C92.8305 25.5524 92.6995 25.4757 92.5573 25.4271C92.4151 25.3786 92.2646 25.3592 92.1147 25.3701C90.7413 25.3347 89.368 25.3508 87.9947 25.3701C87.9326 25.3636 87.8699 25.3705 87.8107 25.3904C87.7516 25.4103 87.6974 25.4428 87.6519 25.4855C87.6065 25.5282 87.5707 25.5803 87.5472 25.6381C87.5236 25.6958 87.5128 25.758 87.5155 25.8204C87.5058 26.9396 87.5122 28.091 87.5122 29.2746Z" fill="#C4C4C4"/>
<path d="M69.8685 19.7766H67.7265V19.3488C67.7265 16.2312 67.7265 13.1136 67.7265 9.99603C67.7265 8.89929 68.2507 8.35576 69.3346 8.35254C71.2987 8.35254 73.2638 8.35254 75.23 8.35254C76.7191 8.35254 77.581 9.07619 77.8705 10.5267C78.0802 11.5745 78.0693 12.6546 77.8383 13.6979C77.5489 15.0359 76.6773 15.7209 75.2653 15.7274C73.6572 15.7274 72.0298 15.7274 70.4088 15.7274C69.8396 15.7274 69.8396 15.7273 69.8396 16.2773V19.7766H69.8685ZM69.8685 14.0195C71.4573 14.0195 72.9722 14.0388 74.487 14.0195C74.7825 14.0352 75.0727 13.9368 75.2977 13.7447C75.5227 13.5525 75.6654 13.2814 75.6963 12.9871C75.7829 12.4957 75.8056 11.9952 75.7639 11.498C75.6577 10.4495 75.2364 10.0861 74.1783 10.0732C72.9593 10.0571 71.7404 10.0732 70.5182 10.0732C70.0615 10.0732 69.8749 10.2437 69.8749 10.6972C69.8749 11.2214 69.8749 11.7489 69.8749 12.2731L69.8685 14.0195Z" fill="#C4C4C4"/>
<path d="M167.838 35.0609C167.111 35.0609 166.445 35.0609 165.776 35.0609C165.673 35.0609 165.525 34.9065 165.477 34.7907C165.153 34.0338 164.844 33.2737 164.548 32.5104C164.525 32.4063 164.464 32.3143 164.377 32.252C164.291 32.1897 164.184 32.1615 164.078 32.1727C162.444 32.1888 160.814 32.1727 159.18 32.1727C159.086 32.1611 158.991 32.1841 158.913 32.2374C158.835 32.2907 158.779 32.3706 158.755 32.4622C158.466 33.2276 158.144 33.9835 157.851 34.7489C157.826 34.8527 157.763 34.9432 157.674 35.0027C157.586 35.0622 157.478 35.0864 157.372 35.0705C156.758 35.0512 156.14 35.0705 155.459 35.0705C155.584 34.7489 155.687 34.4884 155.8 34.2247C157.116 31.0921 158.431 27.9605 159.746 24.8301C159.993 24.2351 160.296 23.6626 161.013 23.5596C162.3 23.3731 163.014 23.5596 163.502 24.7239C164.92 28.0881 166.336 31.4544 167.751 34.8229C167.774 34.8711 167.793 34.9322 167.838 35.0609ZM161.769 25.4637H161.531C160.839 27.1683 160.145 28.8696 159.44 30.6096H163.843L161.769 25.4637Z" fill="#C4C4C4"/>
<path d="M72.8465 23.6556V25.3312H68.8841C68.6693 25.3284 68.4546 25.3381 68.2409 25.3602C66.6907 25.5499 66.0378 26.1932 65.7354 27.8978C65.5369 29.0261 65.5544 30.1819 65.7869 31.3038C65.8594 31.8326 66.1151 32.3192 66.5094 32.6788C66.9038 33.0385 67.4118 33.2484 67.945 33.2721C68.8648 33.3557 69.7911 33.3461 70.7174 33.3622C71.47 33.3622 72.2258 33.3622 73.0105 33.3622V35.0121C72.9428 35.0351 72.8727 35.0502 72.8015 35.0571C71.1162 35.0571 69.4309 35.0989 67.752 35.0571C65.2466 34.9831 63.7767 33.6034 63.4809 31.0883C63.3051 29.737 63.3507 28.3661 63.6159 27.0294C64.034 25.0418 65.3173 23.8132 67.3532 23.6942C69.1446 23.5752 70.9489 23.6363 72.7468 23.6202C72.7597 23.6106 72.7822 23.6298 72.8465 23.6556Z" fill="#C4C4C4"/>
<path d="M95.6687 23.6012C96.4535 23.6012 97.1578 23.6012 97.8622 23.6012C97.9683 23.6012 98.1066 23.7588 98.1838 23.8778C99.2837 25.9619 100.378 28.0503 101.468 30.143C101.525 30.2523 101.59 30.3617 101.686 30.5321L103.056 27.8112C103.7 26.5054 104.378 25.2028 105.021 23.8938C105.055 23.791 105.123 23.7029 105.214 23.6443C105.304 23.5857 105.413 23.5603 105.52 23.5722C106.163 23.5883 106.807 23.5722 107.482 23.5722C107.471 23.6381 107.454 23.7027 107.43 23.7652C105.501 27.4445 103.571 31.1228 101.641 34.8001C101.615 34.8532 101.578 34.9002 101.533 34.9379C101.488 34.9756 101.435 35.0032 101.378 35.0188C100.673 35.0381 99.9688 35.0188 99.1873 35.0188C99.5603 34.3402 99.8659 33.6905 100.255 33.089C100.384 32.9138 100.454 32.702 100.454 32.4844C100.454 32.2668 100.384 32.0549 100.255 31.8797C98.7788 29.2392 97.3283 26.5826 95.8713 23.9292C95.7941 23.8778 95.7491 23.7716 95.6687 23.6012Z" fill="#C4C4C4"/>
<path d="M80.0381 35.0439H77.8832V25.3502H73.4255V23.623H84.4797V25.3148H80.0381V35.0439Z" fill="#C4C4C4"/>
<path d="M146.308 25.3541V23.627H157.366V25.3348H152.902V35.0381H150.766V25.3541H146.308Z" fill="#C4C4C4"/>
</svg>
