<svg width="153" height="38" viewBox="0 0 153 38" fill="none" xmlns="http://www.w3.org/2000/svg">
<path d="M12.1533 28.514C11.0868 28.514 10.1887 28.514 9.12226 28.514C9.12226 25.3707 9.12226 22.2275 9.12226 18.9719C7.94353 18.9719 6.98932 18.9719 5.97898 18.9719C2.4428 18.9158 0.365989 16.9512 0.309859 13.4712C0.253729 8.98079 0.309859 4.54653 0.309859 0C1.37633 0 2.33054 0 3.45314 0C3.45314 0.44904 3.45314 0.89808 3.45314 1.34712C3.45314 4.71492 3.45314 8.13884 3.45314 11.5066C3.45314 12.2363 3.50927 12.966 3.62153 13.7518C3.84605 15.4919 4.688 16.2216 6.42802 16.2216C7.26997 16.2216 8.11192 16.2216 9.12226 16.2216C9.12226 10.777 9.12226 5.44461 9.12226 0.0561334C10.1887 0.0561334 11.1991 0.0561334 12.2655 0.0561334C12.1533 9.48597 12.1533 18.9158 12.1533 28.514Z" fill="#C4C4C4"/>
<path d="M31.5733 26.1568C32.303 26.1568 32.752 26.1568 33.2572 26.1568C35.0533 26.1007 36.1759 25.2587 36.2882 23.5187C36.4566 20.4877 36.4566 17.4567 36.2882 14.4818C36.232 12.9101 35.1095 12.012 33.7623 12.0682C32.4713 12.1243 31.5171 13.0785 31.3487 14.6502C31.2365 15.6044 31.2926 16.6147 31.2926 17.5689C31.2926 23.0135 31.2926 28.4581 31.2926 33.9589C31.2926 36.3724 30.7313 37.1021 28.2055 38.0002C28.2055 37.6073 28.1493 37.2144 28.1493 36.8215C28.1493 30.142 28.0932 23.4626 28.1493 16.7831C28.1493 15.2676 28.3739 13.6959 28.8229 12.2927C29.4965 10.1036 31.461 8.98103 33.9869 9.03716C36.5127 9.09329 38.2527 10.272 38.9263 12.4611C39.1508 13.1346 39.3753 13.8082 39.3753 14.5379C39.3753 17.7373 39.5437 20.8806 39.2631 24.08C39.0386 26.6058 37.4108 28.3459 34.8288 28.9633C33.8185 29.1878 33.201 29.0194 32.752 28.0652C32.4713 27.4478 32.0784 26.8865 31.5733 26.1568Z" fill="#C4C4C4"/>
<path d="M125.591 18.1301C127.556 20.3192 128.005 24.3606 126.377 26.718C125.816 27.5038 124.862 28.3458 124.02 28.4019C121.438 28.6264 118.8 28.458 116.105 28.458C116.105 22.1154 116.105 15.8849 116.105 9.54224C118.575 9.54224 121.045 9.2616 123.458 9.59838C126.546 10.0474 128.061 14.3694 126.265 17.1759C126.04 17.5127 125.816 17.7934 125.591 18.1301ZM119.192 25.7638C120.034 25.7638 120.708 25.7638 121.438 25.7638C123.346 25.7638 124.132 24.9219 124.244 22.9012C124.3 20.9366 123.458 19.814 121.662 19.6456C121.325 19.6456 120.876 19.5334 120.764 19.365C120.315 18.5792 119.978 17.7372 119.473 16.7269C120.652 16.7269 121.494 16.783 122.336 16.7269C123.458 16.6146 123.795 15.8288 123.795 14.8185C123.795 13.8643 123.683 12.8539 122.616 12.6855C121.55 12.5171 120.371 12.6294 119.249 12.6294C119.192 16.9514 119.192 21.2734 119.192 25.7638Z" fill="#C4C4C4"/>
<path d="M54.7553 18.9711C54.9237 17.1188 54.9237 15.2666 55.2044 13.4704C55.7095 10.5516 57.5618 9.03613 60.5367 9.03613C63.5116 9.03613 65.7568 10.5516 65.9813 13.4704C66.262 17.175 66.262 20.9357 65.9813 24.6403C65.7568 27.559 63.4555 29.1307 60.5367 29.0745C57.6179 29.0745 55.7095 27.559 55.2044 24.6403C54.9237 22.788 54.9237 20.8796 54.7553 18.9711ZM58.0108 19.0834C58.0108 20.3182 57.9547 21.497 58.0108 22.7318C58.0108 23.3493 58.1792 23.9667 58.3476 24.5841C58.6844 25.5383 59.4141 26.1558 60.4806 26.2119C61.4909 26.268 62.2767 25.7629 62.6135 24.8648C62.8942 24.1351 63.0625 23.3493 63.0625 22.6196C63.1187 20.3183 63.1187 17.9608 63.0625 15.6595C63.0625 14.8736 62.838 14.0317 62.5574 13.302C62.1645 12.3478 61.3225 12.0672 60.3122 12.1233C59.358 12.1794 58.6844 12.7407 58.3476 13.5827C58.1231 14.2001 58.0109 14.8736 57.9547 15.4911C57.9547 16.6137 58.0108 17.8485 58.0108 19.0834Z" fill="#C4C4C4"/>
<path d="M113.748 19.1956C113.635 20.9357 113.635 22.788 113.411 24.528C112.962 27.5029 110.885 29.0745 107.91 29.0745C104.991 29.0745 102.802 27.3906 102.634 24.4719C102.353 20.8796 102.353 17.2311 102.634 13.6949C102.858 10.72 104.991 9.03613 107.966 9.03613C110.941 9.03613 112.962 10.6639 113.411 13.6388C113.692 15.4349 113.635 17.3434 113.748 19.1956ZM110.548 19.1395C110.492 19.1395 110.436 19.1395 110.38 19.1395C110.38 17.5118 110.492 15.8279 110.324 14.2001C110.155 12.7407 109.145 11.9549 107.854 12.011C106.619 12.011 105.609 12.7968 105.553 14.2001C105.384 17.3995 105.497 20.5989 105.497 23.8544C105.497 24.079 105.609 24.3035 105.665 24.528C106.058 25.4822 106.731 26.0996 107.798 26.1558C108.921 26.2119 109.706 25.5945 110.099 24.6403C110.324 24.079 110.436 23.4054 110.436 22.788C110.604 21.6092 110.548 20.3744 110.548 19.1395Z" fill="#C4C4C4"/>
<path d="M88.7696 19.9821C88.6012 21.3292 88.489 23.6306 87.9277 25.7074C87.3102 28.0087 85.4018 29.1313 82.7637 29.0752C80.2379 29.019 78.4417 27.7842 77.7681 25.539C77.4875 24.5286 77.263 23.4622 77.263 22.4518C77.263 19.4208 77.2068 16.3898 77.5997 13.4149C77.9927 10.3839 80.0695 8.98064 83.1005 9.03677C86.0192 9.0929 87.9277 10.7207 88.3767 13.6956C88.6573 15.4917 88.6573 17.2879 88.7696 19.9821ZM80.4062 18.9156C80.4062 20.3189 80.3501 21.7221 80.4062 23.1815C80.4624 24.9215 81.4727 26.1003 82.8198 26.1564C84.167 26.2125 85.2334 25.1461 85.4579 23.3499C85.4579 23.1815 85.5141 22.957 85.5141 22.7886C85.5141 20.3189 85.5702 17.8492 85.5141 15.3795C85.5141 14.6498 85.2895 13.9201 85.0089 13.2465C84.616 12.3484 83.8302 11.8433 82.9321 12.0678C82.2024 12.2362 81.4727 12.7414 80.9675 13.3027C80.5746 13.8078 80.5185 14.6498 80.4624 15.3233C80.3501 16.5021 80.4062 17.7369 80.4062 18.9156Z" fill="#C4C4C4"/>
<path d="M152.758 28.5134C150.569 28.5134 148.492 28.6256 146.471 28.4572C144.843 28.2889 143.44 27.4469 142.767 25.8753C141.644 23.3494 141.588 20.7674 142.879 18.2416C143.777 16.5577 145.292 15.828 147.089 15.6035C147.425 15.5474 147.931 15.7719 148.099 16.0525C148.548 16.7261 148.941 17.4558 149.446 18.41C147.818 18.3539 146.247 18.41 145.685 19.8694C145.292 20.8797 145.18 22.1707 145.349 23.2933C145.629 25.314 146.92 25.9314 149.727 25.4824C149.727 22.732 149.727 19.9255 149.727 17.1751C149.727 16.0525 149.783 14.9861 149.614 13.8635C149.334 11.8989 147.987 11.3376 146.303 12.4041C145.91 12.6847 145.573 12.9654 145.068 13.3022C144.45 12.797 143.777 12.2918 143.159 11.8428C144.563 9.37307 147.762 8.3066 150.232 9.37307C152.028 10.1589 152.702 11.7305 152.758 13.4706C152.814 18.5222 152.758 23.4617 152.758 28.5134Z" fill="#C4C4C4"/>
<path d="M18.3825 19.0839C18.8876 19.0839 19.2244 19.0278 19.5051 19.0278C21.7503 18.9716 22.6483 18.1297 22.6483 15.8284C22.6483 15.0987 22.5922 14.369 22.4238 13.6393C22.1432 12.629 21.5257 12.0115 20.347 12.0677C19.1683 12.0677 18.5509 12.7412 18.2702 13.8077C18.1579 14.2567 18.1018 14.7619 18.1018 15.2109C18.1018 17.7368 18.1018 20.3188 18.1018 22.8446C18.1018 23.1814 18.1018 23.5743 18.2141 23.9111C18.607 25.9879 20.7399 26.8298 22.4238 25.5388C22.7606 25.2582 23.0974 24.9214 23.4903 24.5285C23.6587 24.6408 23.7709 24.6969 23.9393 24.753C25.7355 26.2124 25.7355 26.8298 23.6587 28.1208C20.2348 30.366 15.4637 28.2331 15.1831 24.1917C14.9585 20.7678 15.0147 17.2877 15.1831 13.8638C15.2953 11.3941 16.8108 9.65406 18.8876 9.20502C21.4135 8.64372 23.7709 9.31728 24.8374 11.2257C26.3529 13.9199 26.3529 16.7826 25.0058 19.5891C24.2761 21.1046 21.9748 22.0027 20.2909 21.6659C20.0102 21.6097 19.6735 21.3291 19.5051 21.0484C19.1122 20.4871 18.8315 19.8136 18.3825 19.0839Z" fill="#C4C4C4"/>
<path d="M132.721 20.0944C132.721 22.8448 132.721 25.6513 132.721 28.4578C131.71 28.4578 130.812 28.4578 129.746 28.4578C129.746 22.1712 129.746 15.8847 129.746 9.54199C130.7 9.54199 131.598 9.54199 132.665 9.54199C132.665 11.5627 132.665 13.5834 132.665 15.604C132.777 15.6602 132.833 15.6602 132.945 15.7163C133.282 15.2111 133.619 14.7621 133.956 14.2569C134.573 13.3588 135.359 12.5169 135.752 11.5065C136.706 9.20521 138.502 9.31748 140.635 9.59813C139.007 12.0678 137.492 14.4814 135.864 16.7828C135.303 17.5686 135.359 18.0737 135.864 18.8596C137.716 21.6661 139.456 24.4726 141.196 27.2791C141.421 27.6158 141.589 28.0088 141.926 28.5701C140.747 28.5701 139.793 28.6823 138.839 28.5139C138.446 28.4578 137.997 28.0087 137.772 27.6158C136.145 25.09 134.629 22.5641 133.058 20.0383C132.889 20.0383 132.777 20.0944 132.721 20.0944Z" fill="#C4C4C4"/>
<path d="M89.5559 28.4574C90.1172 26.0438 90.6224 23.6303 91.1275 21.2728C91.9134 17.6805 92.7553 14.0882 93.5411 10.4958C93.7095 9.65389 94.0463 9.37324 94.8883 9.4855C95.6179 9.54163 96.3476 9.4855 97.1896 9.4855C98.5928 15.8282 99.9961 22.1709 101.455 28.4574C98.4244 28.9065 98.4244 28.9065 97.8631 26.2122C97.1896 22.8444 96.4599 19.4205 95.7863 16.0527C95.7302 15.8282 95.6179 15.6598 95.4496 15.1546C94.7199 18.9715 93.9902 22.5077 93.3166 26.0438C92.6431 28.8503 92.6431 28.8503 89.5559 28.4574Z" fill="#C4C4C4"/>
<path d="M49.3657 19.7015C46.3908 19.477 46.3908 19.477 45.4927 16.7266C46.7837 16.7266 47.9625 16.7266 49.3096 16.7266C49.3096 14.2569 49.3096 11.9556 49.3096 9.54199C50.376 9.54199 51.3864 9.54199 52.4529 9.54199C52.4529 15.8847 52.4529 22.1712 52.4529 28.5139C51.4425 28.5139 50.4883 28.5139 49.4218 28.5139C49.3657 25.5952 49.3657 22.6764 49.3657 19.7015Z" fill="#C4C4C4"/>
<path d="M76.5887 9.59814C76.3642 12.6292 74.2312 12.7976 71.7615 12.4046C71.7615 17.8492 71.7615 23.1816 71.7615 28.5139C70.6951 28.5139 69.7408 28.5139 68.6744 28.5139C68.6744 22.1713 68.6744 15.9408 68.6744 9.59814C71.3125 9.59814 73.9506 9.59814 76.5887 9.59814Z" fill="#C4C4C4"/>
<path d="M45.0445 28.5139C43.978 28.5139 43.0799 28.5139 42.0696 28.5139C42.0696 22.1712 42.0696 15.9408 42.0696 9.54199C43.0238 9.54199 43.978 9.54199 45.0445 9.54199C45.0445 15.8285 45.0445 22.1712 45.0445 28.5139Z" fill="#C4C4C4"/>
</svg>
