<svg width="87" height="38" viewBox="0 0 87 38" fill="none" xmlns="http://www.w3.org/2000/svg">
<path d="M0.853381 8.24197L1.88136 7.68031C6.47751 5.17941 11.0737 2.67678 15.6698 0.172417C15.8812 0.0545836 16.1203 -0.00464817 16.3622 0.000837484C16.6042 0.00632313 16.8404 0.0763312 17.0462 0.203625C19.2674 1.41593 21.4892 2.62651 23.7116 3.83535C26.3523 5.27302 28.9919 6.71069 31.6303 8.14836C31.6806 8.17436 31.7274 8.20383 31.8037 8.24543C31.6633 8.33038 31.5437 8.40492 31.4223 8.47599L21.2673 14.3838C21.1626 14.4382 21.076 14.5219 21.0181 14.6248C20.9602 14.7276 20.9336 14.8451 20.9414 14.9628C20.9414 15.2714 20.9518 15.5817 20.964 15.8903C20.9646 16.0026 20.9945 16.1129 21.0508 16.2102C21.107 16.3074 21.1876 16.3884 21.2847 16.445C21.5534 16.6097 21.8255 16.7692 22.096 16.9304C22.1952 16.9944 22.3107 17.0285 22.4288 17.0285C22.5469 17.0285 22.6624 16.9944 22.7616 16.9304C24.8939 15.688 27.0267 14.4457 29.1601 13.2033L32.53 11.2444C32.5595 11.2271 32.5907 11.215 32.6393 11.1907C32.6393 11.26 32.6393 11.3138 32.6393 11.364C32.6393 16.8339 32.6393 22.3026 32.6393 27.7701C32.6509 28.0194 32.592 28.267 32.4693 28.4844C32.3467 28.7018 32.1653 28.8802 31.9458 28.9992C28.1991 31.2042 24.4547 33.4104 20.7126 35.6178L17.0029 37.8055C16.8036 37.9328 16.572 38.0005 16.3355 38.0005C16.099 38.0005 15.8674 37.9328 15.6681 37.8055L7.58292 33.0521C5.32934 31.7208 3.06536 30.3842 0.799641 29.065C0.546727 28.9359 0.336744 28.7361 0.19519 28.4899C0.0536364 28.2437 -0.0133999 27.9618 0.00222099 27.6782C0.0103108 22.2777 0.0103108 16.8778 0.00222099 11.4785V11.1751C0.137436 11.2496 0.246648 11.3086 0.348926 11.371L12.4662 18.4177C13.1597 18.8165 13.8375 19.2256 14.5309 19.6139C14.6339 19.6611 14.7198 19.7392 14.7766 19.8373C14.8334 19.9354 14.8584 20.0488 14.8481 20.1617C14.8481 24.2268 14.8481 28.2919 14.8394 32.3587C14.8394 32.7418 14.9556 33.0036 15.3144 33.1631C15.5364 33.2706 15.7527 33.3892 15.9628 33.5185C16.0689 33.5827 16.1906 33.6167 16.3147 33.6167C16.4387 33.6167 16.5604 33.5827 16.6666 33.5185L17.4761 33.0677C17.5764 33.0168 17.6598 32.938 17.7164 32.8409C17.773 32.7437 17.8003 32.6323 17.7951 32.5199V18.4697C17.7958 18.349 17.7619 18.2307 17.6974 18.1287C17.6329 18.0266 17.5404 17.9453 17.4311 17.8942C15.8455 16.9766 14.261 16.0561 12.6777 15.1327L3.1243 9.57158C2.42049 9.16362 1.71783 8.75509 1.01633 8.34598C0.967793 8.31824 0.922722 8.28704 0.853381 8.24197Z" fill="#C4C4C4"/>
<path d="M52.7259 14.6212V8.26953H56.4252V8.48622C56.4252 14.8806 56.4252 21.2756 56.4252 27.6711C56.4252 28.0074 56.4807 27.9485 56.1461 28.0178C54.1128 28.4869 52.0244 28.673 49.9401 28.5708C48.6817 28.5251 47.4488 28.2025 46.3292 27.626C45.5564 27.2412 44.8753 26.6949 44.3319 26.0241C43.7884 25.3533 43.3954 24.5736 43.1794 23.7378C42.6749 21.8638 42.7408 20.002 43.5088 18.2043C44.3131 16.3252 45.7433 15.1204 47.6935 14.5431C49.1516 14.1117 50.6983 14.0764 52.1746 14.4409C52.3497 14.4825 52.5196 14.5518 52.7259 14.6212ZM52.7259 21.5986C52.7259 20.4302 52.7259 19.2635 52.7259 18.0951C52.735 18.0343 52.721 17.9723 52.6867 17.9213C52.6523 17.8703 52.6002 17.834 52.5404 17.8195C51.4883 17.4212 50.3408 17.3481 49.2467 17.6098C48.6883 17.729 48.1721 17.9961 47.7522 18.3831C47.3323 18.7701 47.0241 19.2627 46.8597 19.8096C46.6011 20.6028 46.5498 21.449 46.7106 22.2677C46.9845 23.7794 47.8478 24.7883 49.3351 25.2234C50.4151 25.5406 51.509 25.4626 52.6045 25.3031C52.745 25.2823 52.7224 25.1887 52.7224 25.1003L52.7259 21.5986Z" fill="#C4C4C4"/>
<path d="M83.2232 8.26222H86.6244C86.9711 8.26222 86.9277 8.21715 86.9277 8.55865C86.9277 13.5281 86.9277 18.4975 86.9277 23.4669C86.9277 24.904 86.9277 26.3411 86.9277 27.7782C86.9277 27.9238 86.8827 27.9828 86.7457 28.0053C85.8079 28.1596 84.877 28.352 83.9357 28.4647C82.7859 28.6089 81.6253 28.6466 80.4686 28.5774C79.0974 28.4942 77.7834 28.1908 76.5821 27.4974C75.8413 27.0853 75.1959 26.5214 74.6881 25.8427C74.1803 25.164 73.8215 24.3857 73.6351 23.5588C73.1878 21.7092 73.2658 19.882 74.0477 18.1294C74.9318 16.148 76.4902 14.9554 78.5774 14.444C79.8795 14.126 81.2376 14.1136 82.5454 14.4076C82.7673 14.4561 82.9805 14.541 83.2215 14.6156L83.2232 8.26222ZM83.2232 21.6103C83.2232 20.4541 83.2232 19.2978 83.2232 18.1433C83.2341 18.0687 83.2161 17.9927 83.173 17.9309C83.1298 17.8691 83.0647 17.826 82.9909 17.8105C82.0599 17.4747 81.0582 17.384 80.0821 17.547C78.8686 17.7481 77.962 18.3791 77.4662 19.5266C77.1148 20.3802 77.022 21.3182 77.1992 22.224C77.4592 23.7668 78.3277 24.7948 79.8446 25.2369C80.9194 25.5506 82.008 25.4709 83.0967 25.3131C83.2353 25.2941 83.218 25.2039 83.218 25.1138L83.2232 21.6103Z" fill="#C4C4C4"/>
<path d="M58.5378 33.87V33.6186C58.5378 27.6022 58.5378 21.5845 58.5378 15.5657C58.5278 15.4973 58.5441 15.4277 58.5833 15.3708C58.6225 15.3139 58.6818 15.2739 58.7493 15.2589C60.1983 14.7199 61.7152 14.3844 63.2564 14.2621C64.3178 14.1542 65.389 14.1897 66.4409 14.3679C68.0392 14.6608 69.4538 15.3057 70.5511 16.54C71.394 17.4974 71.9223 18.6908 72.0644 19.9585C72.2606 21.3303 72.142 22.7287 71.7177 24.0479C71.0122 26.187 69.5422 27.5496 67.4013 28.2083C66.4536 28.4837 65.4706 28.618 64.4838 28.607C64.3468 28.607 64.2948 28.5706 64.2965 28.425C64.2965 27.4635 64.2965 26.5014 64.2965 25.5387C64.2965 25.3983 64.3433 25.3653 64.4699 25.3653C65.0498 25.3549 65.6228 25.2373 66.1601 25.0186C66.631 24.8343 67.054 24.5455 67.3972 24.1741C67.7404 23.8027 67.9949 23.3583 68.1415 22.8743C68.4197 22.0356 68.4682 21.1377 68.2819 20.274C67.9629 18.8022 67.0164 17.9372 65.562 17.6321C64.5336 17.4336 63.4723 17.4877 62.4694 17.7898C62.4379 17.7932 62.4074 17.8029 62.3798 17.8184C62.3522 17.8339 62.328 17.8549 62.3087 17.88C62.2894 17.9051 62.2754 17.9339 62.2676 17.9646C62.2598 17.9953 62.2582 18.0272 62.2631 18.0585C62.2631 23.2475 62.2631 28.4348 62.2631 33.6204C62.2631 33.8648 62.2631 33.8648 62.0256 33.8648H58.5378V33.87Z" fill="#C4C4C4"/>
</svg>
