<svg width="197" height="38" viewBox="0 0 197 38" fill="none" xmlns="http://www.w3.org/2000/svg">
<path d="M10.9894 21.9617C13.018 23.2199 15.213 23.696 17.5358 23.8973V27.157C17.5358 28.4694 18.0507 28.9843 19.3592 28.9843H22.2162V27.5945H20.238C19.5876 27.5945 19.4405 27.4628 19.4328 26.8202C19.4328 25.8872 19.4328 24.9503 19.4328 24.0754C20.7204 23.9305 21.9997 23.7185 23.2654 23.4405C24.4154 23.0848 25.5362 22.6409 26.6179 22.1127C26.9819 21.9234 27.3127 21.6763 27.5974 21.381C29.0801 20.0028 29.084 18.2839 27.5974 16.8902C26.2231 15.6166 24.5003 15.0398 22.7272 14.6836C21.7881 14.5196 20.8409 14.4059 19.8896 14.3429C19.5373 14.3119 19.4173 14.1997 19.4328 13.8513C19.456 13.2744 19.4328 12.6899 19.4328 12.0821C19.5108 12.0887 19.5876 12.1056 19.6612 12.1324C22.4601 13.7312 25.5107 14.099 28.6581 13.9016C30.6751 13.7738 32.6572 13.4293 34.4651 12.4498C35.1101 12.1056 35.702 11.6701 36.2227 11.1568C37.4538 9.91413 37.4189 8.32688 36.1956 7.06483C35.0841 5.99479 33.6944 5.25838 32.1849 4.93947C28.6912 3.98122 24.9909 4.08771 21.5581 5.2453C20.5373 5.58543 19.5948 6.12643 18.7862 6.83642C18.4135 7.13862 18.1151 7.52222 17.9137 7.95777C17.7124 8.39332 17.6136 8.86921 17.6248 9.34891C17.6481 10.9826 17.6248 12.6163 17.6248 14.2577C16.7499 14.3971 15.906 14.4939 15.0775 14.6681C13.4934 14.9414 11.9952 15.5818 10.7029 16.538C10.2192 16.888 9.82932 17.3521 9.56797 17.889C9.30661 18.4259 9.18184 19.019 9.20472 19.6157C9.25117 23.6728 9.20472 27.7454 9.20472 31.7871V32.4568C8.81759 32.1936 8.52724 31.9923 8.22915 31.7794C5.85215 30.0876 3.82745 28.0629 2.48798 25.4381C1.19035 22.9389 0.685276 20.1035 1.04009 17.31C1.39491 14.5164 2.59275 11.8973 4.47396 9.80186C7.07162 6.81707 10.3429 4.8001 13.9664 3.32126C18.6264 1.46348 23.5593 0.381952 28.5691 0.119677C33.6122 -0.221183 38.6781 0.170008 43.6092 1.28107C47.5429 2.10141 51.3064 3.59162 54.7353 5.68664C57.5111 7.44809 59.9229 9.60829 61.4172 12.5815C64.0768 17.8736 63.5194 22.9256 59.9848 27.6448C58.0763 30.1882 55.5483 32.0039 52.7571 33.4518C48.6419 35.6158 44.2402 36.8276 39.6411 37.4702C35.0211 38.11 30.3394 38.1711 25.7043 37.6521C20.7374 37.1102 15.9524 35.9255 11.4694 33.6531C11.3059 33.595 11.1666 33.4836 11.074 33.3369C10.9813 33.1902 10.9406 33.0166 10.9584 32.844C10.9817 29.4024 10.9584 25.9569 10.9584 22.5114C10.9894 22.3643 10.9894 22.2017 10.9894 21.9617ZM35.1426 19.3872C36.319 19.4091 37.4591 18.9797 38.3287 18.1871C38.8309 17.739 39.1376 17.1121 39.1832 16.4406C39.2288 15.7691 39.0096 15.1064 38.5726 14.5945C37.024 12.6589 33.4779 12.6589 31.91 14.5713C31.463 15.0751 31.2326 15.7348 31.2689 16.4074C31.3051 17.0799 31.605 17.7111 32.1036 18.1639C32.9238 18.9536 34.0195 19.3925 35.1581 19.3872H35.1426ZM23.1957 29.0423H25.1933V27.6951H27.88V29.0462H29.5717V23.2857C28.3097 23.3825 27.0825 23.4057 25.8746 23.5838C24.7132 23.7502 23.7764 24.358 23.5518 25.5697C23.3796 26.7208 23.2659 27.8798 23.2112 29.0423H23.1957ZM30.9809 29.0849C32.2042 29.0849 33.3656 29.1159 34.5232 29.0849C34.9813 29.0982 35.4269 28.9348 35.7678 28.6285C36.1087 28.3222 36.3187 27.8965 36.3543 27.4396C36.3622 26.9733 36.1899 26.5218 35.8733 26.1793C35.5568 25.8368 35.1203 25.6296 34.6548 25.6007C34.0354 25.5233 33.3966 25.5581 32.7733 25.4807C32.572 25.4575 32.2468 25.2678 32.2275 25.1207C32.1849 24.7761 32.5023 24.7103 32.7966 24.7103H35.8162V23.367C34.6548 23.367 33.4934 23.3437 32.3591 23.367C32.0384 23.399 31.729 23.5022 31.4532 23.6689C31.132 23.853 30.8778 24.1346 30.7274 24.4729C30.5771 24.8112 30.5384 25.1886 30.617 25.5504C30.6661 25.8735 30.8187 26.1719 31.0518 26.4009C31.285 26.6298 31.5861 26.777 31.91 26.8202C32.2939 26.8852 32.6821 26.9214 33.0714 26.9286C33.4779 26.9479 33.8883 26.9286 34.2948 26.9596C34.3731 26.9729 34.4468 27.0058 34.5091 27.0552C34.5713 27.1046 34.6201 27.1689 34.6509 27.2422C34.6509 27.3428 34.5077 27.5403 34.3838 27.5945C34.204 27.6458 34.0165 27.6641 33.8302 27.6486H30.9732L30.9809 29.0849ZM49.3542 13.3441C49.3915 13.8716 49.3838 14.4013 49.331 14.9275C49.289 15.3216 49.1061 15.6872 48.8161 15.9573C48.5594 16.1149 48.2649 16.2002 47.9637 16.2043C47.6625 16.2084 47.3658 16.1311 47.105 15.9805C46.6249 15.7289 46.6714 15.2062 46.6714 14.7533V13.3557H44.968C44.9311 14.0095 44.9311 14.6648 44.968 15.3185C45.119 16.5612 45.6919 17.1535 46.834 17.4477C46.9063 17.482 46.9695 17.5328 47.0186 17.596C47.0677 17.6592 47.1013 17.7331 47.1166 17.8116C47.136 18.183 47.136 18.5552 47.1166 18.9266H48.9284V17.4787C49.3679 17.4985 49.8016 17.3721 50.1616 17.1192C50.5216 16.8663 50.7877 16.5013 50.9182 16.0811C51.2395 15.1946 51.1311 14.281 51.1234 13.3712L49.3542 13.3441ZM51.0924 23.3825C49.7994 23.3825 48.5528 23.2586 47.3605 23.7502C46.8625 23.9398 46.4372 24.2817 46.1452 24.7274C45.8532 25.173 45.7095 25.6995 45.7345 26.2317C45.7345 27.4125 46.1758 28.3068 47.283 28.8062C48.4986 29.3482 49.78 29.1933 51.0576 29.1933V27.8345C50.5892 27.8345 50.1633 27.8577 49.7375 27.8345C49.2626 27.8183 48.7905 27.7548 48.3283 27.6448C48.0239 27.5816 47.7519 27.4121 47.5611 27.1667C47.3703 26.9212 47.2731 26.6159 47.2869 26.3053C47.2632 25.9848 47.36 25.6671 47.5584 25.4143C47.7567 25.1615 48.0424 24.9919 48.3593 24.9387C48.9268 24.8375 49.5017 24.7831 50.0781 24.7761C50.4072 24.7529 50.7401 24.7761 51.0808 24.7761L51.0924 23.3825ZM40.4656 29.112V24.7877H42.1806V23.4173H36.9273V24.8342H38.7468V29.1275L40.4656 29.112ZM45.057 17.6297C44.2131 17.6297 43.4156 17.6103 42.6181 17.6297C42.1458 17.6297 41.9639 17.4516 41.9871 16.9986C41.9871 16.7973 41.9871 16.6115 41.9871 16.387V13.4022H40.2566C40.2566 14.9004 40.2334 16.3637 40.2566 17.8271C40.2784 18.1646 40.4293 18.4807 40.678 18.71C40.9267 18.9392 41.2541 19.0639 41.5922 19.0582C42.1884 19.0582 42.7846 19.0582 43.3808 19.0582H45.057V17.6297ZM43.2336 23.3554V28.9726H44.9138V23.3554H43.2336Z" fill="#C4C4C4"/>
<path d="M26.7729 6.06152C29.39 6.16218 31.314 6.28606 33.1064 7.09903C33.6043 7.31802 34.0673 7.60889 34.4807 7.96234C35.3363 8.70564 35.3479 9.65023 34.4807 10.3742C33.9666 10.7911 33.3956 11.1326 32.7851 11.3885C31.1615 12.024 29.4253 12.3217 27.6827 12.2634C25.7122 12.2634 23.7611 12.093 21.9261 11.3072C21.3923 11.0865 20.895 10.7863 20.4511 10.4168C19.5684 9.6696 19.58 8.74434 20.4279 7.95459C21.1404 7.30947 22.0184 6.8752 22.9636 6.70029C24.4463 6.39833 25.9484 6.19702 26.7729 6.06152Z" fill="#C4C4C4"/>
<path d="M156.114 29.0384H153.357V26.5027H150.055V29.0384H147.26C147.237 28.9104 147.223 28.7811 147.217 28.6513C147.217 26.9827 147.198 25.3142 147.217 23.6418C147.174 22.4187 147.588 21.2234 148.379 20.2892C149.238 19.3369 150.373 19.0233 151.604 19.0078C152.966 19.0078 154.333 19.0078 155.696 19.0078C155.994 19.0078 156.168 19.0504 156.168 19.4182C156.168 22.5152 156.168 25.6123 156.168 28.7093C156.16 28.8205 156.142 28.9306 156.114 29.0384V29.0384ZM153.319 23.967V21.5319C150.938 21.2106 149.834 21.7913 150.059 24.0057H152.951C153.074 23.999 153.197 23.9861 153.319 23.967V23.967Z" fill="#C4C4C4"/>
<path d="M19.5064 22.2796V20.1388H17.6366V22.21C15.728 22.028 13.9201 21.7647 12.3484 20.6614C12.0815 20.4771 11.8462 20.251 11.6515 19.9917C11.4394 19.7312 11.3284 19.4029 11.3391 19.0672C11.3498 18.7315 11.4813 18.4109 11.7096 18.1644C11.8476 17.9908 12.0077 17.836 12.1858 17.7037C13.7924 16.5423 15.67 16.2481 17.6056 16.0391V18.7993H19.4677V16.0894C21.6782 16.2365 23.8152 16.4223 25.6618 17.6379C27.0323 18.5438 27.0207 19.7633 25.6618 20.7118C24.4153 21.5905 22.9519 21.8731 21.4886 22.0977C20.8691 22.2099 20.2071 22.2254 19.5064 22.2796Z" fill="#C4C4C4"/>
<path d="M97.9278 29.1165C97.1502 29.1928 96.3656 29.0838 95.6382 28.7985C94.9108 28.5132 94.2613 28.0597 93.7429 27.475C93.0761 26.7907 92.6293 25.9225 92.4603 24.982C92.2913 24.0416 92.4076 23.0721 92.7945 22.1984C93.1124 21.2973 93.6964 20.5139 94.4693 19.9519C95.2421 19.3899 96.1673 19.0758 97.1226 19.051C98.0056 18.9758 98.8946 19.0174 99.7667 19.1749C100.963 19.4272 102.024 20.1108 102.748 21.0955C103.472 22.0801 103.808 23.2968 103.692 24.5135C103.581 25.7566 103.013 26.9144 102.099 27.7642C101.185 28.614 99.9887 29.0957 98.7408 29.1165H97.9278ZM97.9936 26.6892V26.6427C98.3188 26.6427 98.644 26.6698 98.9653 26.6427C99.582 26.5529 100.146 26.2441 100.553 25.7727C100.961 25.3014 101.185 24.6991 101.185 24.076C101.185 23.4529 100.961 22.8506 100.553 22.3793C100.146 21.908 99.582 21.5992 98.9653 21.5093C98.3032 21.4532 97.6376 21.4532 96.9755 21.5093C96.3859 21.5802 95.8418 21.8617 95.4434 22.3021C95.045 22.7424 94.8192 23.312 94.8075 23.9057C94.7598 24.5168 94.931 25.1251 95.2906 25.6216C95.6502 26.1181 96.1747 26.4704 96.7703 26.6156C97.1761 26.6657 97.5847 26.6903 97.9936 26.6892V26.6892Z" fill="#C4C4C4"/>
<path d="M121.539 26.53V19.0273C122.407 19.0273 123.239 19.0273 124.067 19.0273C124.168 19.0273 124.334 19.2906 124.338 19.4377C124.362 20.4597 124.338 21.4818 124.338 22.5038V29.0231C124.129 29.0231 123.951 29.0541 123.8 29.0541H117.881C117.552 29.0718 117.222 29.0202 116.914 28.9028C116.606 28.7853 116.326 28.6045 116.093 28.3721C115.859 28.1398 115.676 27.8609 115.557 27.5536C115.437 27.2463 115.384 26.9173 115.399 26.588C115.399 24.2227 115.399 21.8534 115.399 19.4842V19.0467H118.226V19.6119C118.226 21.5708 118.226 23.5297 118.226 25.4886C118.226 26.4603 118.388 26.6074 119.364 26.6074C120.03 26.6074 120.695 26.6074 121.357 26.6074C121.4 26.6035 121.431 26.5803 121.539 26.53Z" fill="#C4C4C4"/>
<path d="M125.998 19.0273H126.575C128.511 19.0273 130.466 19.0273 132.409 19.0273C133.997 19.0273 134.91 19.9448 134.914 21.5398C134.914 23.8626 134.914 26.1983 134.914 28.5469V29.0386H132.08V28.4966C132.08 26.5377 132.08 24.5775 132.08 22.6161C132.08 21.6327 131.925 21.4818 130.962 21.4779H128.821V29.0386H126.002L125.998 19.0273Z" fill="#C4C4C4"/>
<path d="M91.0986 29.042H88.2726V28.5C88.2726 26.5204 88.2726 24.5435 88.2726 22.5691C88.2726 21.6361 88.0983 21.4696 87.1654 21.4658H84.9819V29.042H82.1946V19.0617C82.3319 19.0428 82.4702 19.0312 82.6088 19.0268C84.6374 19.0268 86.666 19.0268 88.6984 19.0268C89.0025 19.016 89.3056 19.0657 89.5903 19.1731C89.875 19.2804 90.1355 19.4433 90.3567 19.6522C90.5778 19.8612 90.7553 20.112 90.8787 20.3901C91.0021 20.6682 91.0689 20.968 91.0754 21.2722C91.1257 23.8312 91.0986 26.4056 91.0986 29.042Z" fill="#C4C4C4"/>
<path d="M190.394 19.0277V22.5119C191.087 22.5119 191.73 22.5467 192.368 22.5119C192.595 22.5006 192.81 22.4079 192.974 22.2506C193.137 22.0934 193.239 21.8823 193.259 21.6563C193.344 21.0369 193.352 20.4059 193.387 19.7787C193.387 19.5464 193.387 19.3103 193.387 19.0509H196.507C196.441 20.2123 196.418 21.3466 196.298 22.4693C196.232 23.0771 195.911 23.3636 195.291 23.7391C195.291 23.7701 195.291 23.8204 195.291 23.832C196.201 24.4243 196.484 25.2954 196.453 26.3367C196.418 27.2233 196.453 28.1059 196.453 29.0467H193.46C193.46 28.5976 193.46 28.1446 193.46 27.6956C193.469 27.1335 193.448 26.5714 193.398 26.0115C193.376 25.735 193.248 25.4777 193.041 25.2926C192.834 25.1075 192.564 25.0088 192.287 25.0166C191.73 24.9934 191.164 25.0166 190.533 25.0166V29.0622H187.734C187.734 28.8763 187.703 28.7099 187.703 28.5473C187.703 25.5663 187.703 22.5854 187.703 19.6045C187.703 19.1554 187.824 19.0045 188.276 19.0277C188.954 19.0277 189.651 19.0277 190.394 19.0277Z" fill="#C4C4C4"/>
<path d="M180.073 19.0273V19.6274C180.073 21.5631 180.073 23.4987 180.073 25.4073C180.073 26.4603 180.247 26.6268 181.285 26.6268H183.341V19.0622H186.171V29.0231C186.108 29.0427 186.043 29.0557 185.977 29.0618C183.828 29.0618 181.68 29.0812 179.531 29.0618C178.926 29.0457 178.351 28.7938 177.929 28.36C177.506 27.9261 177.27 27.3445 177.27 26.739C177.236 24.3001 177.27 21.865 177.27 19.4261C177.27 19.2906 177.429 19.039 177.518 19.039C178.35 19.0273 179.183 19.0273 180.073 19.0273Z" fill="#C4C4C4"/>
<path d="M145.51 29.0417H142.734V21.4307C141.991 21.4772 141.294 21.4849 140.609 21.5701C140.36 21.6012 140.127 21.7124 139.946 21.8869C139.766 22.0614 139.646 22.2898 139.606 22.5379C139.501 23.0005 139.444 23.4728 139.436 23.9471C139.413 25.4491 139.436 26.9474 139.436 28.4494V29.034H136.668C136.641 28.9875 136.614 28.9604 136.614 28.9333C136.614 26.9396 136.548 24.9381 136.695 22.956C136.873 20.521 138.406 19.135 140.845 19.0344C142.309 18.9724 143.776 19.0344 145.243 19.0344C145.336 19.0445 145.428 19.0613 145.518 19.0847L145.51 29.0417Z" fill="#C4C4C4"/>
<path d="M113.812 29.0417H111.032V21.4152C110.274 21.4441 109.518 21.5113 108.767 21.6165C108.136 21.7366 107.892 22.294 107.819 22.8786C107.752 23.4193 107.719 23.9636 107.718 24.5084C107.718 26.0028 107.718 27.501 107.718 29.0301H104.966C104.937 28.9552 104.918 28.8773 104.907 28.7978C104.907 26.9086 104.869 25.0156 104.962 23.1264C105.078 20.6332 106.607 19.1428 109.1 19.0344C110.583 18.9724 112.066 19.0344 113.548 19.0344C113.638 19.0428 113.727 19.057 113.815 19.077L113.812 29.0417Z" fill="#C4C4C4"/>
<path d="M165.676 19.0274C165.676 19.8016 165.676 20.4791 165.676 21.1566C165.676 21.4586 165.506 21.4779 165.289 21.4779C164.626 21.4353 163.962 21.4353 163.299 21.4779C162.559 21.5368 161.833 21.7105 161.147 21.9928C160.163 22.4574 159.931 23.4097 160.032 24.4279C160.051 24.8589 160.207 25.2727 160.476 25.61C160.745 25.9472 161.114 26.1907 161.53 26.3055C162.186 26.4806 162.86 26.5806 163.539 26.6036C164.232 26.6539 164.929 26.6036 165.657 26.6036V29.0502C163.775 28.9805 161.886 29.329 160.117 28.4386C159.247 27.991 158.531 27.2929 158.062 26.4344C157.593 25.576 157.391 24.5965 157.484 23.6226C157.658 21.5166 158.982 19.7513 160.941 19.279C161.944 19.0996 162.961 19.0076 163.98 19.0041C164.511 18.9887 165.068 19.0274 165.676 19.0274Z" fill="#C4C4C4"/>
<path d="M176.036 19.0625V21.4588H172.811V29.035H170.066V21.486H166.814V19.0625H176.036Z" fill="#C4C4C4"/>
<path d="M116.789 10.4796V15.9769H115.294V14.6606H113.432V15.9846H111.915C111.915 14.7342 111.826 13.4876 111.942 12.2643C111.983 11.796 112.193 11.3586 112.533 11.0337C112.872 10.7089 113.319 10.5188 113.788 10.499C114.764 10.4177 115.755 10.4796 116.789 10.4796ZM115.263 11.8384C113.862 11.6178 113.351 12.0127 113.521 13.1741H115.263V11.8384Z" fill="#C4C4C4"/>
<path d="M73.1785 29.065H72.1565V10.4053H73.1979L73.1785 29.065Z" fill="#C4C4C4"/>
<path d="M93.1042 16.0226V14.6367H95.0824C95.3922 14.6367 95.698 14.6367 96.0038 14.6367C96.3097 14.6367 96.5187 14.4818 96.4335 14.0521H94.5211C93.5649 14.0521 93.0461 13.5295 93.0384 12.5617C93.0384 11.8842 93.0384 11.2067 93.0384 10.4828H94.6101C94.6101 10.9744 94.6101 11.4777 94.6101 11.981C94.6101 12.6081 94.734 12.7165 95.3651 12.7204H96.4839V10.4673H97.9666C97.9666 10.6144 98.0014 10.7615 98.0014 10.9047C98.0014 12.1513 98.0014 13.394 98.0014 14.6367C98.0014 15.5542 97.5369 16.0188 96.6194 16.0226C95.4657 16.0265 94.3082 16.0226 93.1042 16.0226Z" fill="#C4C4C4"/>
<path d="M88.6601 14.9191C88.6407 15.3063 88.6252 15.6121 88.6097 15.976H87.1464V10.4632C88.4704 10.4632 89.7789 10.4284 91.0835 10.4632C91.3672 10.506 91.6251 10.6523 91.8074 10.8739C91.9896 11.0955 92.0835 11.3767 92.0707 11.6634C92.0939 12.2905 92.09 12.9254 92.0707 13.5525C92.078 13.7202 92.0515 13.8875 91.993 14.0447C91.9344 14.2019 91.8449 14.3458 91.7297 14.4678C91.6146 14.5898 91.4762 14.6875 91.3226 14.755C91.169 14.8226 91.0035 14.8586 90.8357 14.8611C90.3286 14.9114 89.8137 14.892 89.2872 14.8998L88.6601 14.9191ZM88.6329 11.7834V12.3215C88.6329 13.6222 88.6329 13.6184 89.926 13.5255C90.2318 13.5061 90.5067 13.4016 90.4873 13.0686C90.4435 12.6478 90.3671 12.2311 90.2589 11.8221C90.2589 11.7988 90.1312 11.7872 90.0653 11.7834H88.6329Z" fill="#C4C4C4"/>
<path d="M104.361 15.9957H102.813V12.3915C102.813 11.985 102.662 11.7489 102.205 11.776C101.818 11.7992 101.431 11.776 100.959 11.776V15.9841H99.4565V10.4326H100.297C101.218 10.4326 102.139 10.4326 103.057 10.4326C103.808 10.4326 104.346 10.8894 104.365 11.594C104.392 13.0419 104.361 14.4898 104.361 15.9957Z" fill="#C4C4C4"/>
<path d="M110.595 15.9914H109.046V12.8672C109.074 12.6477 109.063 12.4251 109.015 12.2091C108.95 12.0387 108.76 11.8219 108.605 11.8026C108.132 11.775 107.657 11.775 107.184 11.8026V15.9991H105.69V10.4321C106.65 10.4321 107.602 10.4786 108.543 10.4321C110.351 10.3237 110.696 11.0786 110.637 12.5149C110.599 13.4827 110.637 14.4506 110.637 15.4261C110.622 15.5965 110.607 15.7784 110.595 15.9914Z" fill="#C4C4C4"/>
<path d="M85.9384 11.7804C85.3693 11.7804 84.8428 11.8075 84.3202 11.7804C83.7976 11.7533 83.6737 12.0359 83.6737 12.4657C83.6737 13.5419 83.6737 14.6155 83.6737 15.6866C83.6737 15.7679 83.6737 15.8531 83.6543 15.9847H82.1445C82.1445 15.8569 82.1097 15.7098 82.1097 15.5666C82.1097 14.3394 82.1097 13.1122 82.1097 11.8888C82.1097 10.9636 82.6052 10.4603 83.5227 10.4448C84.297 10.4448 85.1138 10.4448 85.9423 10.4448L85.9384 11.7804Z" fill="#C4C4C4"/>
<path d="M35.3514 18.0361C34.6832 17.9938 34.0482 17.7294 33.5474 17.285C33.3945 17.1476 33.2737 16.9783 33.1935 16.789C33.1134 16.5997 33.0759 16.3952 33.0836 16.1898C33.0914 15.9844 33.1442 15.7832 33.2384 15.6005C33.3326 15.4178 33.4658 15.258 33.6287 15.1326C34.091 14.7799 34.653 14.5826 35.2343 14.5687C35.8156 14.5548 36.3864 14.725 36.8651 15.0551C37.0781 15.193 37.2508 15.3848 37.3657 15.6111C37.4805 15.8374 37.5333 16.09 37.5187 16.3434C37.5042 16.5967 37.4228 16.8417 37.2828 17.0533C37.1428 17.265 36.9493 17.4357 36.7218 17.5483C36.2808 17.7522 35.8221 17.9155 35.3514 18.0361V18.0361Z" fill="#C4C4C4"/>
<path d="M27.7326 26.2636H25.2666C25.1504 25.5396 25.4137 25.1022 26.0757 24.8893C26.2538 24.8389 26.4368 24.8078 26.6215 24.7963C27.8913 24.7344 28.0501 24.9396 27.7326 26.2636Z" fill="#C4C4C4"/>
</svg>
