<svg width="62" height="38" viewBox="0 0 62 38" fill="none" xmlns="http://www.w3.org/2000/svg">
<path d="M61.7461 0.0293806C61.3582 0.213034 60.9682 0.392558 60.5823 0.582402C58.5918 1.53966 56.6995 2.68899 54.9324 4.01404C50.8053 7.15059 47.8834 11.1497 46.2904 16.098C46.0109 17.063 45.6498 18.0026 45.2111 18.9065C44.7335 19.9029 44.0678 20.7976 43.2508 21.5416C42.7028 22.0498 42.0162 22.3838 41.2781 22.5011C40.5022 22.6043 39.7614 22.5238 39.1423 21.9811C38.7175 21.5789 38.4387 21.0467 38.3499 20.4685C38.2006 19.6495 38.2048 18.8098 38.3623 17.9923C38.6264 16.3931 39.2393 14.9115 39.9512 13.4711C41.9611 9.40395 45.0089 6.31073 48.8966 4.02023C51.2039 2.67698 53.6828 1.65308 56.2654 0.976535C57.9394 0.527377 59.6465 0.212039 61.3706 0.0335053C61.4944 0.0190607 61.6182 0.0108059 61.742 0.000488281L61.7461 0.0293806Z" fill="#C4C4C4"/>
<path d="M49.1712 0.0293806C48.7833 0.213034 48.3933 0.392558 48.0074 0.582402C46.0166 1.53916 44.1243 2.68852 42.3575 4.01404C38.2305 7.15059 35.3085 11.1497 33.7155 16.098C33.436 17.063 33.0749 18.0026 32.6363 18.9065C32.1586 19.9029 31.4929 20.7976 30.6759 21.5416C30.1274 22.0503 29.44 22.3843 28.7011 22.5011C27.9273 22.6043 27.1865 22.5238 26.5674 21.9811C26.1419 21.5795 25.8629 21.047 25.7751 20.4685C25.6246 19.6496 25.6288 18.8097 25.7874 17.9923C26.0516 16.3931 26.6644 14.9115 27.3764 13.4711C29.3862 9.40395 32.434 6.31073 36.3217 4.02023C38.6283 2.67715 41.1065 1.65325 43.6885 0.976535C45.3632 0.527559 47.071 0.212224 48.7957 0.0335053C48.9174 0.0190607 49.0433 0.0108059 49.165 0.000488281L49.1712 0.0293806Z" fill="#C4C4C4"/>
<path d="M37.4196 0.0293806C37.0316 0.213034 36.6416 0.392558 36.2558 0.582402C34.2647 1.53872 32.3724 2.6881 30.6058 4.01404C26.4788 7.15059 23.5548 11.1497 21.9638 16.098C21.6827 17.0628 21.321 18.0022 20.8825 18.9065C20.4057 19.9028 19.7407 20.7976 18.9243 21.5416C18.3753 22.0495 17.6881 22.3834 16.9495 22.5011C16.1736 22.6043 15.4328 22.5238 14.8158 21.9811C14.3902 21.5795 14.1113 21.047 14.0234 20.4685C13.8723 19.6497 13.8758 18.8098 14.0337 17.9923C14.2979 16.3931 14.9107 14.9115 15.6226 13.4711C17.6325 9.40395 20.6803 6.31073 24.568 4.02023C26.8753 2.67698 29.3542 1.65308 31.9368 0.976535C33.6108 0.527377 35.3179 0.212039 37.042 0.0335053C37.1658 0.0190607 37.2896 0.0108059 37.4134 0.000488281L37.4196 0.0293806Z" fill="#C4C4C4"/>
<path d="M13.5012 37.8414H10.668C10.7835 35.8205 10.897 33.8072 11.0085 31.8015H10.9796C10.9589 31.8407 10.9342 31.8778 10.9156 31.917C9.99526 33.8512 9.07769 35.7841 8.16286 37.7155C8.14861 37.7624 8.11815 37.8026 8.07695 37.8291C8.03574 37.8556 7.98647 37.8665 7.93794 37.86C7.4138 37.86 6.89173 37.86 6.36966 37.86H6.1922C5.97759 35.8364 5.76367 33.8175 5.55044 31.8036H5.51743C5.50299 31.8489 5.48648 31.8943 5.47203 31.9397C4.86948 33.8657 4.269 35.7875 3.67058 37.7052C3.66755 37.7304 3.65949 37.7548 3.64687 37.7768C3.63426 37.7989 3.61735 37.8182 3.59715 37.8336C3.57694 37.8489 3.55386 37.8601 3.52925 37.8664C3.50465 37.8727 3.47903 37.8741 3.45391 37.8703C2.6285 37.8703 1.78659 37.8703 0.952924 37.8703H0.787842C0.808477 37.8022 0.824987 37.7506 0.841495 37.699C1.96543 34.2928 3.08935 30.8853 4.21328 27.4764C4.21637 27.4475 4.22552 27.4196 4.24011 27.3945C4.25471 27.3694 4.27444 27.3477 4.298 27.3308C4.32156 27.3138 4.34844 27.3021 4.37686 27.2962C4.40529 27.2904 4.43463 27.2906 4.46297 27.2968C5.32552 27.2968 6.18807 27.2968 7.05062 27.2968H7.23221C7.45301 29.4408 7.6738 31.5662 7.8946 33.6937L7.92349 33.704C7.95238 33.6483 7.98127 33.5906 8.0081 33.5328C8.97107 31.5036 9.92923 29.4738 10.8826 27.4433C10.8939 27.3902 10.9243 27.343 10.968 27.3107C11.0117 27.2784 11.0657 27.2632 11.1199 27.2679C11.9866 27.2679 12.8553 27.2679 13.722 27.2679H13.9139C13.7756 30.8089 13.6374 34.319 13.5012 37.8414Z" fill="#C4C4C4"/>
<path d="M45.9168 35.3298L46.1768 35.3855C46.4176 35.4431 46.6677 35.4498 46.9111 35.405C47.1545 35.3602 47.3859 35.265 47.5904 35.1255C47.873 34.912 48.0717 34.606 48.1516 34.2609C48.3023 33.6893 48.4364 33.1094 48.5458 32.5275C48.8718 30.8169 49.1834 29.1041 49.497 27.3914C49.5115 27.3089 49.5424 27.2738 49.627 27.28C49.7117 27.2862 49.8086 27.28 49.8994 27.28H57.5489C57.4952 27.5813 57.4437 27.866 57.39 28.1487L56.2819 34.1618C56.0604 35.3518 55.8403 36.5424 55.6216 37.7338C55.6092 37.7998 55.5989 37.8514 55.5101 37.8493H52.7079C52.688 37.8453 52.6686 37.839 52.6501 37.8308C53.1412 35.1674 53.6337 32.4986 54.1276 29.8243H52.0063L51.8268 30.7777C51.5895 32.0467 51.3563 33.3178 51.1066 34.5848C51.0089 35.0835 50.8341 35.5638 50.5886 36.0087C50.1633 36.8212 49.4331 37.4319 48.5581 37.707C47.5796 38.03 46.5329 38.0877 45.5248 37.8741L45.4505 37.8514L45.9168 35.3298Z" fill="#C4C4C4"/>
<path d="M30.3335 37.8353C30.5852 36.4672 30.8349 35.1094 31.0908 33.7289L30.709 33.7722C29.6662 33.9326 28.604 33.9173 27.5663 33.7268C27.3693 33.6846 27.1766 33.6245 26.9906 33.5473C26.6413 33.4222 26.3419 33.1873 26.1373 32.8778C25.9327 32.5683 25.8339 32.2008 25.8556 31.8304C25.8677 31.3243 25.9201 30.8198 26.0125 30.322C26.1734 29.3501 26.3674 28.3823 26.5428 27.4125C26.5593 27.3134 26.5902 27.2783 26.6955 27.2783C27.591 27.2783 28.4866 27.2783 29.3781 27.2783C29.4214 27.2783 29.4627 27.2783 29.5163 27.2886C29.4317 27.7488 29.3471 28.1945 29.2666 28.6402C29.1614 29.2304 29.0458 29.8165 28.9592 30.4087C28.8725 31.0009 29.1263 31.3414 29.7268 31.4569C30.2013 31.5278 30.6841 31.5223 31.1568 31.4404C31.522 31.395 31.5179 31.3909 31.586 31.0277C31.8061 29.8226 32.0283 28.6182 32.2525 27.4145C32.2525 27.3774 32.269 27.3402 32.2814 27.2928H35.2281C35.1291 27.8396 35.0218 28.374 34.931 28.9106L33.9405 34.2757C33.7273 35.4285 33.5154 36.5814 33.3049 37.7342C33.2884 37.8167 33.2616 37.8559 33.1667 37.8559C32.2567 37.8559 31.3466 37.8559 30.4366 37.8559C30.4018 37.8512 30.3674 37.8444 30.3335 37.8353V37.8353Z" fill="#C4C4C4"/>
<path d="M17.8738 27.2881H24.2129C24.1654 27.5398 24.1242 27.7833 24.0788 28.0248C23.9776 28.5757 23.8724 29.1267 23.7754 29.6756C23.7548 29.7891 23.7115 29.8118 23.6083 29.8118C22.5765 29.8118 21.5448 29.8118 20.513 29.8118C20.3954 29.8118 20.3479 29.8386 20.3293 29.9624C20.2571 30.4019 20.1705 30.8373 20.0838 31.2975H23.1522C23.0078 32.0816 22.8675 32.8431 22.723 33.619H19.6608C19.5555 34.1885 19.4544 34.7415 19.3471 35.3152H22.7313C22.5745 36.1674 22.4218 36.999 22.2649 37.8409H15.9258C16.5737 34.3192 17.2231 30.8016 17.8738 27.2881Z" fill="#C4C4C4"/>
<path d="M44.8543 27.2914C44.7883 27.6566 44.7264 28.0033 44.6604 28.352C44.5799 28.7936 44.4911 29.2352 44.4169 29.6789C44.3983 29.7924 44.3529 29.8151 44.2497 29.8151C43.218 29.8151 42.1862 29.8151 41.1544 29.8151C41.0368 29.8151 40.9894 29.8419 40.9708 29.9636C40.8986 30.4032 40.8119 30.8406 40.7273 31.2987H43.7937L43.3665 33.6223H40.3022C40.197 34.1897 40.0959 34.7427 39.9886 35.3185H43.3748C43.2159 36.1686 43.0632 37.0002 42.9084 37.8421H36.5714C36.6188 37.5718 36.6663 37.3056 36.7158 37.0415L37.7125 31.6351L38.4925 27.4131C38.5069 27.3265 38.5338 27.2831 38.6369 27.2831H44.7553C44.7718 27.2811 44.8007 27.2872 44.8543 27.2914Z" fill="#C4C4C4"/>
</svg>
