<svg width="150" height="38" viewBox="0 0 150 38" fill="none" xmlns="http://www.w3.org/2000/svg">
<path fill-rule="evenodd" clip-rule="evenodd" d="M6.74045 13.1503C7.86259 14.8261 14.8624 19.8542 17.0741 20.8597L18.5819 21.5647C20.7537 22.4767 23.3988 23.329 25.8134 22.3506C26.7083 21.988 26.567 22.0139 27.2111 21.3653C29.177 19.3854 29.0231 16.5696 28.0942 14.0951C26.9712 11.1037 25.5605 8.43705 23.7168 5.87643L22.3494 4.00969C21.4732 2.92734 20.3708 1.45319 19.3366 0.554199C18.8297 0.8224 18.8595 0.743143 18.4401 1.18971C18.2859 1.3539 18.2533 1.40814 18.1283 1.55875C18.1058 1.58591 18.0737 1.62468 18.0512 1.65184L6.74045 13.1503V13.1503Z" fill="#C4C4C4"/>
<path fill-rule="evenodd" clip-rule="evenodd" d="M131.339 35.7894H136.106V26.7679C136.528 27.2542 136.732 28.288 136.88 28.887C137.098 29.766 137.27 30.4648 137.422 31.2386C137.739 32.8527 138.309 34.2898 138.659 35.7894H142.404L144.645 26.9664C144.776 26.6037 144.727 26.6922 144.957 26.4275V35.7894H149.212C149.605 35.7894 149.723 35.671 149.723 35.2788V18.7677H142.744C142.744 19.6349 142.446 20.3188 142.251 20.9983C141.972 21.9716 141.03 26.9586 140.361 27.4488C140.27 26.3593 139.056 22.0793 138.726 20.7432C138.094 18.1813 139.301 18.7678 131.34 18.7678V35.7895L131.339 35.7894Z" fill="#C4C4C4"/>
<path fill-rule="evenodd" clip-rule="evenodd" d="M63.4226 35.7895H68.5291V27.1084C69.0242 27.471 70.7748 30.829 71.1567 31.4597L73.1148 34.7784C73.8867 36.1827 73.1692 35.7895 78.4017 35.7895C78.7939 35.7895 78.9123 35.671 78.9123 35.2788V19.2785C78.9123 18.8862 78.7939 18.7678 78.4017 18.7678C72.9464 18.7678 73.604 18.3506 73.6326 20.4669L73.6356 27.2786L71.08 23.0256C70.6248 22.1392 70.3767 21.7224 69.82 20.8813C68.0865 18.262 70.424 18.7678 63.4227 18.7678V35.7895H63.4226Z" fill="#C4C4C4"/>
<path fill-rule="evenodd" clip-rule="evenodd" d="M98.9981 30.512L100.229 31.6638C99.7362 32.1507 96.2745 32.1121 96.2745 26.7671C96.2745 21.6612 103.083 20.2393 103.083 27.6182C103.083 28.283 102.953 28.8829 102.743 29.3204C102.022 29.128 101.768 28.5019 101.211 28.1289L98.9981 30.5119V30.512ZM90.9979 27.1076C90.9979 32.1337 94.4344 36.1291 98.6577 36.1291C103.308 36.1291 100.836 35.9998 103.934 35.278L106.147 37.3206L108.36 34.9376C107.721 34.7065 108.31 34.9484 107.856 34.591L106.488 33.2354L107.684 31.0275C108.801 28.7681 108.589 24.8516 107.397 22.6238C106.906 21.7073 106.247 20.9164 105.509 20.2559C102.156 17.2543 93.7691 17.3069 91.6982 23.5524C91.3331 24.6535 90.9979 25.6555 90.9979 27.1075V27.1076Z" fill="#C4C4C4"/>
<path fill-rule="evenodd" clip-rule="evenodd" d="M119.424 22.5107C121.831 22.5107 122.878 24.8674 122.929 27.1275C123.037 31.9574 118.762 33.1149 116.939 30.4427C116.361 29.5948 116.153 28.613 116.137 27.252C116.108 24.9335 117.207 22.5106 119.424 22.5106V22.5107ZM110.743 27.1066C110.743 29.1039 111.566 31.9055 112.908 33.2819C115.513 35.9525 116.779 36.1281 120.445 36.1281C122.25 36.1281 123.592 35.32 124.928 34.4828C127.217 33.0481 128.275 29.6128 128.275 26.9364C128.275 23.5832 126.432 20.1967 123.149 18.9559C120.995 18.1421 118.026 18.0838 115.894 18.9804C112.604 20.3636 110.743 23.709 110.743 27.1066H110.743Z" fill="#C4C4C4"/>
<path fill-rule="evenodd" clip-rule="evenodd" d="M44.0178 29.3205C44.0178 33.5086 46.849 36.1293 50.4861 36.1293C53.6829 36.1293 57.5347 36.1987 59.1007 32.3181C59.4269 31.5099 59.6778 30.5442 59.6778 29.4908V18.7671H54.5712C54.5712 20.7023 54.8701 29.5891 54.1478 30.7695C52.9866 32.6671 49.1243 32.0248 49.1243 29.661V18.7671H44.0177V29.3205H44.0178Z" fill="#C4C4C4"/>
<path fill-rule="evenodd" clip-rule="evenodd" d="M82.6572 35.7888H87.7637V18.7671H82.6572V35.7888Z" fill="#C4C4C4"/>
<path fill-rule="evenodd" clip-rule="evenodd" d="M31.0813 20.6392C31.0813 24.9883 31.3962 25.0326 29.2089 28.299C29.8549 28.1265 32.21 25.5289 32.827 24.9381L37.1449 20.575C37.6913 20.07 38.3881 19.6214 38.5708 18.937L19.7191 0.000488281C19.8315 0.623109 22.8207 3.81426 23.3049 4.41488L25.0014 6.63346C25.6174 7.4562 26.063 8.23243 26.6224 9.09772C28.2659 11.6401 31.0813 17.4897 31.0813 20.6392Z" fill="#C4C4C4"/>
<path fill-rule="evenodd" clip-rule="evenodd" d="M1.12298 19.4469C1.5962 20.1537 5.23968 23.6485 6.2469 24.7063C6.27105 24.7316 6.30604 24.7679 6.33071 24.7926L12.8853 31.3448C12.8898 31.3491 13.1069 31.5399 13.1564 31.5843L19.6767 38.0005C20.9309 36.9104 20.5845 37.0765 21.3707 36.2902L23.0119 34.6972C23.818 33.8911 28.68 29.3436 28.8684 28.6385C26.1939 30.4294 24.6743 30.9343 20.9146 30.4645C18.2889 30.1363 15.2534 28.9834 13.2083 27.9577C10.2665 26.4821 8.00963 25.0804 5.40069 22.999C4.78847 22.5105 1.51729 19.5521 1.12289 19.4468L1.12298 19.4469Z" fill="#C4C4C4"/>
<path fill-rule="evenodd" clip-rule="evenodd" d="M108.19 14.6815C106.86 14.6815 106.828 13.7333 106.828 12.6388C106.828 10.917 109.211 10.791 109.211 12.9793C109.211 13.7456 108.889 14.6815 108.19 14.6815V14.6815ZM104.275 12.1282C103.533 12.1282 103.764 11.4069 103.764 9.7452H101.892V16.2135H103.764V13.8304H104.786C104.844 14.5364 105.193 15.1735 105.688 15.6519C106.542 16.4786 108.557 16.6024 109.61 16.1014C110.262 15.7908 110.892 15.079 111.138 14.3951C112.51 10.5745 108.322 8.28214 105.77 10.3892C105.088 10.9522 105.014 12.1282 104.275 12.1282Z" fill="#C4C4C4"/>
<path fill-rule="evenodd" clip-rule="evenodd" d="M142.574 10.2559V16.2135H144.446V13.8305C145.11 14.0079 144.899 13.9281 145.069 14.7401C145.181 15.2769 145.286 15.7068 145.297 16.2136C147.026 16.2136 146.892 16.3835 147.234 15.0863C147.423 14.3697 147.37 14.0126 147.851 13.6603V16.2135C150.327 16.2135 149.723 17.1387 149.723 10.2559C149.723 9.52959 149.07 9.74527 147.51 9.74527C146.793 9.74527 146.638 11.4385 146.319 12.8092C145.848 12.4645 145.88 12.0963 145.706 11.3793C145.543 10.7087 145.349 10.3653 145.297 9.74527C143.84 9.74527 142.574 9.45291 142.574 10.2559H142.574Z" fill="#C4C4C4"/>
<path fill-rule="evenodd" clip-rule="evenodd" d="M119.935 10.2558V16.2135H122.148C122.276 15.6618 122.646 15.1715 122.946 14.6288C123.583 13.4778 123.437 13.4753 124.02 13.3197V16.2135H125.892V9.74519H124.36C123.429 9.74519 122.933 12.1692 121.977 12.8091C121.977 9.39928 122.382 9.74519 120.446 9.74519C120.053 9.74519 119.935 9.86365 119.935 10.2558H119.935Z" fill="#C4C4C4"/>
<path fill-rule="evenodd" clip-rule="evenodd" d="M112.445 10.5965V16.2136C115.098 16.2136 114.658 16.6642 114.658 13.8306H116.53V16.2136H118.573V10.256C118.573 9.59407 118.136 9.74536 117.041 9.74536C116.3 9.74536 116.53 10.4666 116.53 12.1284H114.658C114.658 10.734 114.759 10.9079 114.488 9.74536H112.615C112.526 10.1271 112.445 10.1367 112.445 10.5965H112.445Z" fill="#C4C4C4"/>
<path fill-rule="evenodd" clip-rule="evenodd" d="M136.786 13.1493C136.492 11.2486 139.316 10.3477 139.306 12.9775C139.299 14.8877 137.828 15.1312 137.196 14.2759C137.092 14.1347 136.802 13.2484 136.786 13.1493H136.786ZM134.744 12.8088C134.744 14.8164 135.95 16.3834 137.467 16.3834C138.64 16.3834 139.63 16.5038 140.581 15.412C142.154 13.6067 141.554 9.57471 137.978 9.57471C137.183 9.57471 136.155 10.0957 135.712 10.5425C135.18 11.0775 134.744 11.8224 134.744 12.8088H134.744Z" fill="#C4C4C4"/>
<path fill-rule="evenodd" clip-rule="evenodd" d="M127.595 16.2143H129.467C129.467 14.443 129.252 14.0901 130.318 14.0015C130.523 14.7707 131.287 15.3797 131.51 16.2143H133.893C133.596 15.103 131.831 13.5018 131.51 12.2993C132.095 11.4248 132.691 11.2867 133.722 9.74605C133.217 9.74605 132.673 9.72215 132.176 9.73178C131.303 9.7488 131.347 9.71218 130.718 10.4863L130.489 10.7685C130.052 11.3139 130.064 11.459 129.467 11.6186V9.74613H127.595V16.2144L127.595 16.2143Z" fill="#C4C4C4"/>
<path fill-rule="evenodd" clip-rule="evenodd" d="M1.12306 19.4478C1.01277 19.0319 1.19854 19.2177 0.782654 19.1074L1.12306 19.4478Z" fill="#C4C4C4"/>
</svg>
