<svg width="216" height="193" viewBox="0 0 216 193" fill="none" xmlns="http://www.w3.org/2000/svg">
<path fill-rule="evenodd" clip-rule="evenodd" d="M85.7558 51.772V51.7722H92.2426V51.772H99.0527L99.0529 51.7722L99.053 51.772H99.0536V51.7713L138.568 6.55296H144.264V0.0652356H135.703L135.703 0.0650121L135.703 0.0652356H135.701V0.066754L96.0907 45.2843H92.2426V0.00012207H85.7558V0.000707927H6.48675V0.000434876L0 0.000435159L2.82039e-06 0.000707927V6.48843V64.4884V70.9762H38.4016L38.4016 104.063V110.551V110.551H47.4812L47.4812 110.551L47.4814 110.551H47.4831V110.55L80.7073 80.1885H88.8023L88.8022 110.401L17.551 187.568L12.782 192.361H41.2264L41.2265 192.342L41.2401 192.354L88.8023 140.076V185.874H88.8019V192.361H98.9861V192.359L98.9901 192.361L137.781 136.919V185.874L137.779 185.874V192.361H215.036V185.874L215.034 185.874V136.178L208.547 136.178V141.627H196.547V144.092H208.547V185.874H152.178V112.594L196.546 54.952V129.69H196.549V136.177H196.551V141.627H199.016V136.177H215.036V129.69L203.033 129.69V51.7724H198.994L198.994 51.7722H203.036V45.2844H186.3V45.2875L186.296 45.2849L150.752 91.5859V0.0655161L144.265 0.0655164V8.91473L101.514 57.222H88.2192V51.7723H85.7542V57.222H85.7524V59.6874H102.618L102.619 59.6841L102.624 59.688L144.265 12.6344V60.647L103.206 105.193V73.7006H100.741V73.7004H95.2919V76.1658H100.741V117.281L100.74 117.298L100.741 117.297V117.298L100.75 117.287L144.265 70.2151V77.8064L100.738 125.734L100.741 125.737V178.566L95.63 185.874H95.289V123.786L95.2877 123.787V123.786L94.2644 124.903L88.8023 130.858V130.865L38.4104 185.874H27.8718L95.289 112.951V73.7007H88.8026H88.8023H78.2292V73.7018L78.2284 73.701L52.7991 96.929V66.9536H52.8017V64.4882H44.8884V64.4881H38.4016V64.4882H17.8382V64.4884H14.3377V14.4029L85.7558 14.403V45.2843V51.772ZM11.8727 64.4884V14.4029H11.8688V11.9376L85.7558 11.9376V6.48843H6.48675L6.48675 64.4884H11.8727ZM44.8884 66.9536H50.3341V99.1805L44.9885 104.063H44.8884L44.8884 66.9536ZM103.206 126.718L144.265 81.4762V109.838L145.462 108.305L145.462 108.313L149.169 103.552L150.752 101.523V101.519L189.487 51.7722H195.884L149.716 111.784L149.713 111.784V185.874H144.267V116.26L137.781 125.603V125.603L103.206 175.041V126.718Z" fill="white" fill-opacity="0.18"/>
</svg>
