<svg width="125" height="136" viewBox="0 0 125 136" fill="none" xmlns="http://www.w3.org/2000/svg">
<path d="M62.5 0.125244L44.5068 9.12183L62.5 18.1318L80.4932 9.12183L62.5 0.125244ZM29.1321 16.8159L6.69434 28.0281L24.6875 37.0381L47.1252 25.8125L29.1321 16.8159ZM95.8679 16.8159L77.8748 25.8125L100.312 37.0381L118.306 28.0281L95.8679 16.8159ZM62.5 33.4932L40.0623 44.7188L62.5 55.9443L84.9377 44.7188L62.5 33.4932ZM0.625 40.3682V108.313L21.25 118.625V50.6807L0.625 40.3682ZM124.375 40.3682L103.75 50.6807V118.625L124.375 108.313V40.3682ZM35 57.5557V125.5L55.625 135.813V67.8682L35 57.5557ZM90 57.5557L69.375 67.8682V135.813L90 125.5V57.5557Z" fill="#C4C4C4" fill-opacity="0.12"/>
</svg>
