<svg width="42" height="38" viewBox="0 0 42 38" fill="none" xmlns="http://www.w3.org/2000/svg">
<path d="M35.112 24.7753C35.847 22.9967 36.246 21.0925 36.246 19C36.246 17.4934 36.015 16.0496 35.616 14.7104C34.251 15.0242 32.823 15.1916 31.332 15.1916C24.906 15.1916 19.215 12.0319 15.75 7.15639C13.881 11.6762 10.311 15.359 5.817 17.3678C5.733 17.891 5.733 18.4559 5.733 19C5.733 23.0346 7.34148 26.904 10.2046 29.7569C13.0677 32.6098 16.9509 34.2126 21 34.2126C23.205 34.2126 25.326 33.7313 27.237 32.8733C28.434 35.1542 28.98 36.2841 28.938 36.2841C25.494 37.435 22.827 38 21 38C15.918 38 11.067 36.0121 7.497 32.4339C5.313 30.2577 3.696 27.6002 2.793 24.7126H0V15.1916H2.289C4.053 6.52864 11.76 0 21 0C26.04 0 30.891 1.98788 34.482 5.56608C37.149 8.20264 38.934 11.5716 39.669 15.1916H42V24.587V24.6289V24.7126H41.874L34.398 31.5551L23.268 30.2996V26.8051H33.411L35.112 24.7753ZM15.267 18.5187C15.897 18.5187 16.506 18.7698 16.947 19.2302C17.388 19.6696 17.64 20.2764 17.64 20.9042C17.64 21.5319 17.388 22.1388 16.947 22.5782C16.506 23.0176 15.897 23.2687 15.267 23.2687C13.944 23.2687 12.873 22.2225 12.873 20.9042C12.873 19.5859 13.944 18.5187 15.267 18.5187ZM26.712 18.5187C28.035 18.5187 29.085 19.5859 29.085 20.9042C29.085 22.2225 28.035 23.2687 26.712 23.2687C25.389 23.2687 24.318 22.2225 24.318 20.9042C24.318 20.2715 24.5702 19.6648 25.0192 19.2174C25.4681 18.77 26.0771 18.5187 26.712 18.5187Z" fill="#FF490F"/>
</svg>
