<svg width="36" height="35" viewBox="0 0 36 35" fill="none" xmlns="http://www.w3.org/2000/svg">
<g clip-path="url(#clip0_302_4073)">
<path d="M3.1971 14.0781C2.81033 14.0781 2.4394 14.2318 2.16591 14.5053C1.89241 14.7788 1.73877 15.1497 1.73877 15.5365V33.28C1.73877 33.6668 1.89241 34.0377 2.16591 34.3112C2.4394 34.5847 2.81033 34.7383 3.1971 34.7383C3.58388 34.7383 3.95481 34.5847 4.2283 34.3112C4.50179 34.0377 4.65544 33.6668 4.65544 33.28V15.5365C4.65544 15.1497 4.50179 14.7788 4.2283 14.5053C3.95481 14.2318 3.58388 14.0781 3.1971 14.0781Z" fill="#FF490F"/>
<path d="M32.3636 13.5938C31.9768 13.5938 31.6059 13.7474 31.3324 14.0209C31.0589 14.2944 30.9053 14.6653 30.9053 15.0521V33.2812C30.9053 33.668 31.0589 34.039 31.3324 34.3124C31.6059 34.5859 31.9768 34.7396 32.3636 34.7396C32.7504 34.7396 33.1213 34.5859 33.3948 34.3124C33.6683 34.039 33.8219 33.668 33.8219 33.2812V15.0521C33.8219 14.6653 33.6683 14.2944 33.3948 14.0209C33.1213 13.7474 32.7504 13.5938 32.3636 13.5938Z" fill="#FF490F"/>
<path d="M22.1554 15.7812H13.4054C13.0027 15.7812 12.6763 16.1077 12.6763 16.5104V23.8021C12.6763 24.2048 13.0027 24.5312 13.4054 24.5312H22.1554C22.5581 24.5312 22.8846 24.2048 22.8846 23.8021V16.5104C22.8846 16.1077 22.5581 15.7812 22.1554 15.7812Z" fill="#FF490F"/>
<path d="M27.9884 25.9883H19.2384C18.8357 25.9883 18.5093 26.3147 18.5093 26.7174V34.0091C18.5093 34.4118 18.8357 34.7383 19.2384 34.7383H27.9884C28.3912 34.7383 28.7176 34.4118 28.7176 34.0091V26.7174C28.7176 26.3147 28.3912 25.9883 27.9884 25.9883Z" fill="#FF490F"/>
<path d="M16.3219 25.9883H7.57194C7.16923 25.9883 6.84277 26.3147 6.84277 26.7174V34.0091C6.84277 34.4118 7.16923 34.7383 7.57194 34.7383H16.3219C16.7246 34.7383 17.0511 34.4118 17.0511 34.0091V26.7174C17.0511 26.3147 16.7246 25.9883 16.3219 25.9883Z" fill="#FF490F"/>
<path d="M34.7363 5.4978L18.8156 -0.180954C18.6599 -0.23655 18.4902 -0.239114 18.3329 -0.188246L0.843137 5.508C0.67588 5.56756 0.531558 5.67816 0.430553 5.82417C0.329547 5.97019 0.276961 6.14424 0.28022 6.32175V11.2801C0.273136 11.4982 0.352834 11.7101 0.501831 11.8695C0.650829 12.0289 0.85696 12.1227 1.07501 12.1303H34.484C34.7015 12.1231 34.9073 12.03 35.0565 11.8716C35.2057 11.7131 35.2861 11.502 35.2802 11.2845V6.30571C35.2837 6.13145 35.2333 5.96037 35.1359 5.81578C35.0386 5.6712 34.899 5.56016 34.7363 5.4978Z" fill="#FF490F"/>
</g>
<defs>
<clipPath id="clip0_302_4073">
<rect width="35" height="35" fill="white" transform="translate(0.280273)"/>
</clipPath>
</defs>
</svg>
