<svg width="41" height="41" viewBox="0 0 41 41" fill="none" xmlns="http://www.w3.org/2000/svg">
<path fill-rule="evenodd" clip-rule="evenodd" d="M3.41659 8.54163C2.47311 8.54163 1.70825 9.30648 1.70825 10.25V22.2083C1.70825 23.0698 2.3498 23.7965 3.2047 23.9035L16.8714 25.6118C16.9416 25.6205 17.0124 25.625 17.0833 25.625H23.9166C23.9875 25.625 24.0582 25.6205 24.1284 25.6118L37.7951 23.9035C38.6501 23.7965 39.2916 23.0698 39.2916 22.2083V10.25C39.2916 9.30648 38.5268 8.54163 37.5833 8.54163H3.41659ZM17.0833 17.9375C16.1398 17.9375 15.3749 18.7023 15.3749 19.6458V28.1875C15.3749 29.131 16.1398 29.8958 17.0833 29.8958H23.9166C24.8601 29.8958 25.6249 29.131 25.6249 28.1875V19.6458C25.6249 18.7023 24.8601 17.9375 23.9166 17.9375H17.0833Z" fill="#FF490F"/>
<path fill-rule="evenodd" clip-rule="evenodd" d="M13.6667 7.68746C13.6667 5.32875 15.5789 3.41663 17.9376 3.41663H23.0626C25.4213 3.41663 27.3334 5.32875 27.3334 7.68746V10.25H23.9167V7.68746C23.9167 7.21572 23.5343 6.83329 23.0626 6.83329H17.9376C17.4659 6.83329 17.0834 7.21572 17.0834 7.68746V10.25H13.6667V7.68746Z" fill="#FF490F"/>
<path fill-rule="evenodd" clip-rule="evenodd" d="M3.41675 35.875V23.0625H6.83341V34.1667H34.1667V23.0625H37.5834V35.875C37.5834 36.8185 36.8186 37.5833 35.8751 37.5833H5.12508C4.1816 37.5833 3.41675 36.8185 3.41675 35.875Z" fill="#FF490F"/>
</svg>
