<svg width="40" height="40" viewBox="0 0 40 40" fill="none" xmlns="http://www.w3.org/2000/svg">
<g clip-path="url(#clip0_17_1100)">
<path d="M39.625 26.125C39.5 25.5 38.75 25.125 38.125 25.25C37.25 25.5 36.625 25.25 36.5 25C36.375 24.75 36.5 24.125 37.125 23.375C37.625 22.875 37.625 22.125 37.125 21.625C35.875 20.375 34.375 19.5 32.625 19C32 18.875 31.25 19.25 31.125 19.875C30.875 20.75 30.375 21.125 30 21.125C29.625 21.125 29.25 20.625 28.875 19.875C28.625 19.25 28 18.875 27.375 19C25.625 19.5 24.125 20.375 22.875 21.625C22.375 22.125 22.375 22.875 22.875 23.375C23.5 24 23.625 24.625 23.5 25C23.375 25.25 22.75 25.5 21.875 25.25C21.25 25.125 20.5 25.5 20.375 26.125C20.125 27 20 27.875 20 28.75C20 29.625 20.125 30.5 20.375 31.375C20.5 32 21.25 32.375 21.875 32.25C22.75 32 23.375 32.25 23.5 32.5C23.625 32.75 23.5 33.375 22.875 34.125C22.375 34.625 22.375 35.375 22.875 35.875C24.125 37.125 25.625 38 27.375 38.5C27.5 38.5 27.625 38.5 27.75 38.5C28.25 38.5 28.75 38.125 29 37.625C29.25 36.75 29.75 36.375 30.125 36.375C30.5 36.375 30.875 36.875 31.25 37.625C31.5 38.25 32.125 38.625 32.75 38.5C34.5 38 36 37.125 37.25 35.875C37.75 35.375 37.75 34.625 37.25 34.125C36.625 33.5 36.5 32.875 36.625 32.5C36.75 32.25 37.375 32 38.25 32.25C38.875 32.375 39.625 32 39.75 31.375C40 30.5 40.125 29.625 40.125 28.75C40.125 27.875 39.875 27 39.625 26.125ZM30 33.75C27.25 33.75 25 31.5 25 28.75C25 26 27.25 23.75 30 23.75C32.75 23.75 35 26 35 28.75C35 31.5 32.75 33.75 30 33.75Z" fill="#FF490F"/>
<path d="M17.5 28.75C17.5 27.25 17.75 25.875 18.25 24.625C18.25 24.5 18.25 24.5 18.25 24.375L18.375 24.25C19 22.75 19.75 21.5 20.75 20.375C20.875 19.875 21 19.5 21.125 19C21.125 18.625 21.125 18.25 20.875 18C20.625 17.75 20.25 17.5 19.875 17.5C18.5 17.5 17.25 17 16.25 16.25H23.75C24.5 16.25 25 15.75 25 15C25 14.25 24.5 13.75 23.75 13.75H23.5V13.5C23.5 11.25 22.75 9.25 21.5 7.5L20.625 10.625C20.5 11.125 20 11.5 19.375 11.5C19.25 11.5 19.125 11.5 19 11.5C18.375 11.25 18 10.625 18.125 10L19.625 4.875C19.625 4.5 19.375 4.125 19 3.875C15.75 2.25 11.875 2.25 8.625 3.875C8.125 3.875 8 4.375 7.875 4.75L9.375 9.875C9.625 10.5 9.125 11.25 8.5 11.375C8.375 11.375 8.25 11.375 8.125 11.375C7.625 11.375 7.125 11 6.875 10.5L6.125 7.5C4.875 9.25 4.125 11.25 4.125 13.5V13.75H3.75C3 13.75 2.5 14.25 2.5 15C2.5 15.75 3 16.25 3.75 16.25H6.25V17.5C6.25 20.25 7.375 22.75 9.25 24.375C9 26.125 7.875 27.625 6.125 28.125C3 29 0.625 31.75 -0.125 35.25C-0.25 35.875 -0.125 36.375 0.25 36.875C0.75 37.25 1.25 37.5 1.875 37.5H21.125C18.875 35.25 17.5 32.125 17.5 28.75Z" fill="#FF490F"/>
</g>
<defs>
<clipPath id="clip0_17_1100">
<rect width="40" height="40" fill="white"/>
</clipPath>
</defs>
</svg>
