<svg width="59" height="59" viewBox="0 0 59 59" fill="none" xmlns="http://www.w3.org/2000/svg">
<g clip-path="url(#clip0_17_263)">
<path d="M18.4835 11.4713L15.2187 13.6276H25.0132L21.7483 11.4713H18.4835ZM33.0419 14.695V24.4695H31.6045C31.3085 22.7121 30.1711 21.3892 28.7709 21.3892C27.3707 21.3892 26.2163 22.7121 25.9167 24.4695H22.4876L25.2801 14.7567H15.2187L18.0523 24.4695H14.6848V39.7669H33.8427C33.7706 40.1567 33.7197 40.547 33.7197 40.9579C33.7197 44.585 36.6634 47.5286 40.2904 47.5286C43.9174 47.5286 46.8612 44.585 46.8612 40.9579C46.8612 40.5468 46.8102 40.1567 46.7379 39.7669H49.5305V24.4695H48.0521V14.695H33.042H33.0419ZM35.4648 17.0976H45.6495V24.469H44.3148V18.4526H36.7995V24.469H35.4648V17.0976ZM13.3501 24.6743C11.1736 25.6478 9.59243 28.6486 9.59243 32.19C9.59243 35.7304 11.1738 38.7111 13.3501 39.6848V24.6743ZM18.5451 27.0359H18.9763H26.3479H27.005V27.693V38.2885H25.6908V28.35H19.4075L16.9435 33.8942V38.2885H15.6293V33.7298V33.5862L15.6908 33.4624L18.3807 27.4258L18.545 27.0356L18.5451 27.0359ZM11.3994 40.8964V42.3952L9.46924 46.933H13.9456V42.6415H17.5184C17.0576 43.1025 16.7587 43.7454 16.7587 44.4485C16.7587 45.8551 17.8985 46.9949 19.3048 46.9949C20.7112 46.9949 21.851 45.8551 21.851 44.4485C21.851 43.7454 21.5726 43.1025 21.1118 42.6415H25.3417C24.8809 43.1025 24.6025 43.7454 24.6025 44.4485C24.6025 45.8551 25.7423 46.9949 27.1487 46.9949C28.5551 46.9949 29.6949 45.8551 29.6949 44.4485C29.6949 43.7454 29.4165 43.1025 28.9557 42.6415H32.3848V40.8964H11.3994Z" fill="#FF490F"/>
</g>
<defs>
<clipPath id="clip0_17_263">
<rect width="59" height="59" fill="white"/>
</clipPath>
</defs>
</svg>
