<?xml version="1.0" standalone="no"?>
<!DOCTYPE svg PUBLIC "-//W3C//DTD SVG 20010904//EN"
 "http://www.w3.org/TR/2001/REC-SVG-20010904/DTD/svg10.dtd">
<svg version="1.0" xmlns="http://www.w3.org/2000/svg"
 width="79.000000pt" height="79.000000pt" viewBox="0 0 79.000000 79.000000"
 preserveAspectRatio="xMidYMid meet">
<metadata>
Created by potrace 1.14, written by Peter Selinger 2001-2017
</metadata>
<g transform="translate(0.000000,79.000000) scale(0.100000,-0.100000)"
fill="#000000" stroke="none">
<path d="M0 620 l0 -130 70 0 70 0 0 -70 c0 -89 13 -91 95 -15 74 68 89 68 89
-2 0 -57 6 -50 -216 -287 l-56 -61 50 -3 c28 -2 54 1 57 6 12 19 155 172 160
172 4 0 6 -41 6 -90 -1 -86 0 -91 19 -88 13 2 45 39 86 97 l65 94 3 -96 3 -97
139 0 c86 0 140 4 141 10 0 6 1 57 2 115 2 103 2 105 -20 105 -23 0 -23 1 -23
154 l0 154 -31 -3 c-35 -3 -30 2 -103 -94 l-56 -73 0 166 0 166 -28 0 c-22 0
-40 -13 -79 -57 -27 -32 -62 -71 -76 -88 -15 -16 -27 -25 -28 -20 0 6 -2 44
-2 85 l-2 75 -167 3 -168 2 0 -130z"/>
</g>
</svg>
