<svg width="151" height="182" viewBox="0 0 151 182" fill="none" xmlns="http://www.w3.org/2000/svg">
<path d="M75.728 181.81C61.228 181.81 48.3114 178.227 36.978 171.06C25.6447 163.893 16.728 153.56 10.228 140.06C3.89469 126.393 0.728028 110.143 0.728028 91.3101C0.728028 72.4767 3.89469 56.3101 10.228 42.8101C16.728 29.1434 25.6447 18.7267 36.978 11.5601C48.3114 4.39339 61.228 0.810055 75.728 0.810055C90.228 0.810055 103.145 4.39339 114.478 11.5601C125.811 18.7267 134.645 29.1434 140.978 42.8101C147.478 56.3101 150.728 72.4767 150.728 91.3101C150.728 110.143 147.478 126.393 140.978 140.06C134.645 153.56 125.811 163.893 114.478 171.06C103.145 178.227 90.228 181.81 75.728 181.81ZM75.728 147.56C86.3947 147.56 94.728 142.977 100.728 133.81C106.895 124.643 109.978 110.477 109.978 91.3101C109.978 72.1434 106.895 57.9767 100.728 48.81C94.728 39.6434 86.3947 35.06 75.728 35.06C65.228 35.06 56.8947 39.6434 50.728 48.81C44.728 57.9767 41.728 72.1434 41.728 91.3101C41.728 110.477 44.728 124.643 50.728 133.81C56.8947 142.977 65.228 147.56 75.728 147.56Z" fill="url(#paint0_linear_454_3047)"/>
<defs>
<linearGradient id="paint0_linear_454_3047" x1="-0.251672" y1="18.3083" x2="180.9" y2="121.057" gradientUnits="userSpaceOnUse">
<stop offset="0.284043" stop-color="#BD3003"/>
<stop offset="0.604754" stop-color="#FF490F"/>
</linearGradient>
</defs>
</svg>
