<svg width="237" height="258" viewBox="0 0 237 258" fill="none" xmlns="http://www.w3.org/2000/svg">
<path d="M92.5 115.06C107.833 117.56 119.583 123.31 127.75 132.31C135.917 141.143 140 152.143 140 165.31C140 175.477 137.333 184.893 132 193.56C126.667 202.06 118.5 208.893 107.5 214.06C96.6667 219.227 83.3333 221.81 67.5 221.81C55.1667 221.81 43 220.227 31 217.06C19.1667 213.727 9.08333 209.06 0.75 203.06L16.5 172.06C23.1667 177.06 30.8333 180.977 39.5 183.81C48.3333 186.477 57.3333 187.81 66.5 187.81C76.6667 187.81 84.6667 185.893 90.5 182.06C96.3333 178.06 99.25 172.477 99.25 165.31C99.25 150.977 88.3333 143.81 66.5 143.81H48V117.06L84 76.31H9.5V43.81H132V70.0601L92.5 115.06Z" fill="url(#paint0_linear_454_3050)"/>
<path d="M170.218 193.91V220.81H162.418V200.31H153.918L153.668 205.06C153.535 208.593 153.201 211.527 152.668 213.86C152.135 216.193 151.268 218.027 150.068 219.36C148.868 220.693 147.201 221.36 145.068 221.36C143.935 221.36 142.585 221.16 141.018 220.76L141.418 214.36C141.951 214.427 142.335 214.46 142.568 214.46C143.735 214.46 144.601 214.043 145.168 213.21C145.768 212.343 146.168 211.26 146.368 209.96C146.568 208.627 146.718 206.877 146.818 204.71L147.218 193.91H170.218ZM203.869 207.46C203.869 207.56 203.819 208.26 203.719 209.56H183.369C183.735 211.227 184.602 212.543 185.969 213.51C187.335 214.477 189.035 214.96 191.069 214.96C192.469 214.96 193.702 214.76 194.769 214.36C195.869 213.927 196.885 213.26 197.819 212.36L201.969 216.86C199.435 219.76 195.735 221.21 190.869 221.21C187.835 221.21 185.152 220.627 182.819 219.46C180.485 218.26 178.685 216.61 177.419 214.51C176.152 212.41 175.519 210.027 175.519 207.36C175.519 204.727 176.135 202.36 177.369 200.26C178.635 198.127 180.352 196.477 182.519 195.31C184.719 194.11 187.169 193.51 189.869 193.51C192.502 193.51 194.885 194.077 197.019 195.21C199.152 196.343 200.819 197.977 202.019 200.11C203.252 202.21 203.869 204.66 203.869 207.46ZM189.919 199.41C188.152 199.41 186.669 199.91 185.469 200.91C184.269 201.91 183.535 203.277 183.269 205.01H196.519C196.252 203.31 195.519 201.96 194.319 200.96C193.119 199.927 191.652 199.41 189.919 199.41ZM231.52 200.31H222.42V220.81H214.67V200.31H205.57V193.91H231.52V200.31Z" fill="#FF490F"/>
<defs>
<linearGradient id="paint0_linear_454_3050" x1="375.495" y1="-151.543" x2="-27.3385" y2="123.6" gradientUnits="userSpaceOnUse">
<stop offset="0.192054" stop-color="#BD3003"/>
<stop offset="0.761373" stop-color="#FF490F"/>
</linearGradient>
</defs>
</svg>
